<?xml version="1.0" encoding="UTF-8"?>
<!DOCTYPE svg PUBLIC "-//W3C//DTD SVG 1.1//EN" "http://www.w3.org/Graphics/SVG/1.1/DTD/svg11.dtd">
<!-- Creator: CorelDRAW -->
<svg xmlns="http://www.w3.org/2000/svg" xml:space="preserve" width="60mm" height="60mm" style="shape-rendering:geometricPrecision; text-rendering:geometricPrecision; image-rendering:optimizeQuality; fill-rule:evenodd; clip-rule:evenodd"
viewBox="0 0 60 60"
 xmlns:xlink="http://www.w3.org/1999/xlink">
 <defs>
  <style type="text/css">
   <![CDATA[
    .fil0 {fill:#A7C4D2}
   ]]>
  </style>
 </defs>
 <g id="Layer_x0020_1">
  <metadata id="CorelCorpID_0Corel-Layer"/>
  <path class="fil0" d="M12.4684 16.1518l8.6726 0 0 -4.5324c0,-1.7641 1.4433,-3.2075 3.2075,-3.2075l11.3031 0c1.7641,0 3.2074,1.4434 3.2074,3.2075l0 4.5324 8.6726 0c3.5961,0 6.6587,2.3988 7.6677,5.6752l-21.1966 7.715c-0.2225,-0.9888 -1.1105,-1.7333 -2.164,-1.7333l-3.6774 0c-1.0535,0 -1.9415,0.7445 -2.164,1.7333l-21.1966 -7.715c1.0088,-3.2763 4.0716,-5.6752 7.6677,-5.6752zm16.3491 13.4373l2.365 0c0.7844,0 1.4264,0.6418 1.4264,1.4263l0 3.5645c0,0.7845 -0.642,1.4264 -1.4264,1.4264l-2.365 0c-0.7844,0 -1.4264,-0.6419 -1.4264,-1.4264l0 -3.5645c0,-0.7845 0.642,-1.4263 1.4264,-1.4263zm26.6362 -5.9741c0.0641,0.4063 0.0977,0.8227 0.0977,1.2463l0 18.707c0,4.4109 -3.609,8.0198 -8.0198,8.0198l-35.0632 0c-4.4109,0 -8.0198,-3.6088 -8.0198,-8.0198l0 -19.3967c0,-0.4237 0.0336,-0.1502 0.0977,-0.5566l21.3972 7.788 0 4.166c0,1.2197 0.998,2.2177 2.2178,2.2177l3.6774 0c1.2198,0 2.2178,-0.9979 2.2178,-2.2177l0 -4.166 21.3972 -7.788zm-31.7534 -7.4632l12.5528 0 0 -3.1871c0,-1.5582 -0.146,-2.1912 -1.7028,-2.1912l-9.2035 0c-1.5568,0 -1.6465,0.6266 -1.6465,2.1833l0 3.195z"/>
 </g>
</svg>
