<?xml version="1.0" encoding="UTF-8"?>
<!DOCTYPE svg PUBLIC "-//W3C//DTD SVG 1.1//EN" "http://www.w3.org/Graphics/SVG/1.1/DTD/svg11.dtd">
<!-- Creator: CorelDRAW -->
<svg xmlns="http://www.w3.org/2000/svg" xml:space="preserve" width="60mm" height="60mm" style="shape-rendering:geometricPrecision; text-rendering:geometricPrecision; image-rendering:optimizeQuality; fill-rule:evenodd; clip-rule:evenodd"
viewBox="0 0 60 60"
 xmlns:xlink="http://www.w3.org/1999/xlink">
 <defs>
  <style type="text/css">
   <![CDATA[
    .fil0 {fill:#A7C4D2}
   ]]>
  </style>
 </defs>
 <g id="Layer_x0020_1">
  <metadata id="CorelCorpID_0Corel-Layer"/>
  <path class="fil0" d="M2.7422 12.5104l54.5155 0 0 3.4654 0 28.0951 0 3.4188 -54.5155 0 0 -34.9793zm27.2578 8.0937c5.1893,0 9.396,4.2068 9.396,9.3961 0,5.1893 -4.2067,9.396 -9.396,9.396 -5.1893,0 -9.3961,-4.2067 -9.3961,-9.396 0,-5.1893 4.2068,-9.3961 9.3961,-9.3961zm1.2037 15.1639l-2.2012 0 0 -8.2993c-0.8051,0.7542 -1.7519,1.3106 -2.8431,1.6689l0 -1.9979c0.5723,-0.1873 1.1982,-0.543 1.8722,-1.0672 0.674,-0.5269 1.1367,-1.1394 1.3854,-1.8401l1.7867 0 0 11.5356zm22.6354 4.8842c0.0233,0 0.0464,0.0005 0.0695,0.001l0 -21.2597c-0.0231,0.0005 -0.0462,0.001 -0.0695,0.001 -1.8881,0 -3.4187,-1.5307 -3.4187,-3.4187 0,-0.0389 0.0008,-0.0776 0.0022,-0.1163l-40.8451 0c0.0013,0.0386 0.0022,0.0774 0.0022,0.1163 0,1.8881 -1.5306,3.4187 -3.4187,3.4187 -0.0233,0 -0.0466,-0.0005 -0.0697,-0.001l0 21.2597c0.0231,-0.0005 0.0464,-0.001 0.0697,-0.001 1.8881,0 3.4187,1.5306 3.4187,3.4187 0,0.0233 -0.0005,0.0465 -0.001,0.0697l40.8426 0c-0.0005,-0.0231 -0.0009,-0.0464 -0.0009,-0.0697 0,-1.888 1.5306,-3.4187 3.4187,-3.4187z"/>
 </g>
</svg>
