<?xml version="1.0" encoding="UTF-8"?>
<!DOCTYPE svg PUBLIC "-//W3C//DTD SVG 1.1//EN" "http://www.w3.org/Graphics/SVG/1.1/DTD/svg11.dtd">
<!-- Creator: CorelDRAW -->
<svg xmlns="http://www.w3.org/2000/svg" xml:space="preserve" width="60mm" height="60mm" style="shape-rendering:geometricPrecision; text-rendering:geometricPrecision; image-rendering:optimizeQuality; fill-rule:evenodd; clip-rule:evenodd"
viewBox="0 0 60 60"
 xmlns:xlink="http://www.w3.org/1999/xlink">
 <defs>
  <style type="text/css">
   <![CDATA[
    .fil0 {fill:#A7C4D2}
   ]]>
  </style>
 </defs>
 <g id="Layer_x0020_1">
  <metadata id="CorelCorpID_0Corel-Layer"/>
  <path class="fil0" d="M7.6926 12.9067l44.6147 0c2.3831,0 4.3328,1.9497 4.3328,4.3328l0 25.5211c0,2.3831 -1.9497,4.3328 -4.3328,4.3328l-44.6147 0c-2.3831,0 -4.3328,-1.9497 -4.3328,-4.3328l0 -25.5211c0,-2.3831 1.9497,-4.3328 4.3328,-4.3328zm41.7002 11.5258l-4.8228 0 0 3.2005 3.3295 -1.7784 0 1.6697 -3.3295 1.7785 0 2.0601 3.3295 -1.7818 0 1.6731 -3.3295 1.7784 0 4.256 -1.9277 0 0 -3.231 -3.3124 1.7682 0 -1.6698 3.3124 -1.7682 0 -2.0601 -3.3124 1.7716 0 -1.6698 3.3124 -1.7716 0 -4.2254 -4.8024 0 0 -1.7207 11.5529 0 0 1.7207zm-38.7859 9.6l24.474 0 0 2.9881 -24.474 0 0 -2.9881zm0 -5.5493l24.474 0 0 2.988 -24.474 0 0 -2.988zm0 -5.5495l24.474 0 0 2.9881 -24.474 0 0 -2.9881z"/>
 </g>
</svg>
