<?xml version="1.0" encoding="UTF-8"?>
<!DOCTYPE svg PUBLIC "-//W3C//DTD SVG 1.1//EN" "http://www.w3.org/Graphics/SVG/1.1/DTD/svg11.dtd">
<!-- Creator: CorelDRAW -->
<svg xmlns="http://www.w3.org/2000/svg" xml:space="preserve" width="60mm" height="60mm" style="shape-rendering:geometricPrecision; text-rendering:geometricPrecision; image-rendering:optimizeQuality; fill-rule:evenodd; clip-rule:evenodd"
viewBox="0 0 60 60"
 xmlns:xlink="http://www.w3.org/1999/xlink">
 <defs>
  <style type="text/css">
   <![CDATA[
    .fil0 {fill:#A7C4D2}
   ]]>
  </style>
 </defs>
 <g id="Layer_x0020_1">
  <metadata id="CorelCorpID_0Corel-Layer"/>
  <path class="fil0" d="M3.534 20.3112l22.8224 0 0 34.4889 -17.0689 0 0 -24.5162 -5.7535 0 0 -9.9727zm37.5224 -14.2339c2.287,1.9122 1.7431,6.3302 -1.2149,9.8679 -2.9579,3.5377 -7.2097,4.8555 -9.4967,2.9432 -0.1233,-0.103 -0.238,-0.2139 -0.3448,-0.331 -0.1068,0.1171 -0.2214,0.228 -0.3447,0.331 -2.287,1.9123 -6.5389,0.5945 -9.4968,-2.9432 -2.9579,-3.5377 -3.5018,-7.9557 -1.2148,-9.8679 2.287,-1.9122 6.5388,-0.5945 9.4968,2.9432 0.6313,0.755 1.1522,1.5502 1.5595,2.3524 0.4072,-0.8022 0.9283,-1.5974 1.5596,-2.3524 2.9579,-3.5377 7.2097,-4.8554 9.4968,-2.9432zm-20.3311 2.1307c-1.5263,1.2762 -1.1633,4.2246 0.8107,6.5855 1.974,2.3609 4.8114,3.2403 6.3377,1.9641 1.5263,-1.2761 1.1633,-4.2245 -0.8107,-6.5854 -1.9741,-2.3609 -4.8115,-3.2403 -6.3377,-1.9642zm18.5495 0.0001c1.5262,1.2761 1.1633,4.2245 -0.8108,6.5854 -1.9739,2.3609 -4.8114,3.2403 -6.3377,1.9642 -1.5262,-1.2762 -1.1633,-4.2246 0.8107,-6.5855 1.9741,-2.3609 4.8115,-3.2403 6.3378,-1.9641zm-10.2335 12.1031l1.9174 0 0 34.4889 -1.9174 0 0 -34.4889zm4.6023 0l22.8224 0 0 9.9727 -5.7535 0 0 24.5162 -17.0689 0 0 -34.4889z"/>
 </g>
</svg>
