<?xml version="1.0" encoding="UTF-8"?>
<!DOCTYPE svg PUBLIC "-//W3C//DTD SVG 1.1//EN" "http://www.w3.org/Graphics/SVG/1.1/DTD/svg11.dtd">
<!-- Creator: CorelDRAW -->
<svg xmlns="http://www.w3.org/2000/svg" xml:space="preserve" width="90mm" height="90mm" style="shape-rendering:geometricPrecision; text-rendering:geometricPrecision; image-rendering:optimizeQuality; fill-rule:evenodd; clip-rule:evenodd"
viewBox="0 0 90 90"
 xmlns:xlink="http://www.w3.org/1999/xlink">
 <defs>
  <style type="text/css">
   <![CDATA[
    .fil2 {fill:#FEFEFE}
    .fil0 {fill:#ECC83D}
    .fil1 {fill:#373435;fill-opacity:0.101961}
   ]]>
  </style>
 </defs>
 <g id="Layer_x0020_1">
  <metadata id="CorelCorpID_0Corel-Layer"/>
  <g id="_222336640">
   <circle id="_222259664" class="fil0" cx="45" cy="45" r="45"/>
   <path id="_224657040" class="fil1" d="M27.6893 67.6488l17.2782 -18.4824 -2.1959 -2.9856 8.6462 -13.8844 -1.17 -1.0561 1.3936 0 0.0299 -7.9816 -1.1989 -1.5 10.6814 -0.1599 28.5571 28.5571c-2.3532,20.8649 -18.972,37.4076 -39.872,39.6425l-22.1496 -22.1496z"/>
   <path id="_222906168" class="fil1" d="M27.6893 67.6488l17.1674 -18.483 5.1449 4.2785 9.4808 -2.4852 21.2612 21.436c-7.3013,9.5319 -18.3276,16.0581 -30.9047,17.4033l-22.1496 -22.1496z"/>
   <g>
    <rect id="_222906120" class="fil2" x="38.2915" y="23.2623" width="13.417" height="7.97805"/>
    <rect id="_222905904" class="fil2" x="28.4851" y="21.3817" width="33.0296" height="0.806009"/>
    <path id="_82353856" class="fil2" d="M51.4178 32.2964c1.3094,1.5025 2.1025,3.4666 2.1025,5.6161 0,4.7235 -3.8293,8.5528 -8.5528,8.5528 -4.7235,0 -8.5528,-3.8293 -8.5528,-8.5528 0,-2.1495 0.7931,-4.1136 2.1025,-5.6161l12.9006 0z"/>
    <path id="_222336952" class="fil2" d="M52.3452 46.3747c6.1907,1.9499 10.673,7.3655 10.673,13.6978 0,2.4186 0,1.7174 0,4.136 0,2.878 -1.1704,4.3456 -3.8722,4.3456 -11.1053,0 -17.7396,0 -28.845,0 -2.4576,0 -3.3842,-1.259 -3.3842,-4.4152l0 -4.0664c0,-6.3323 4.4823,-11.7479 10.673,-13.6978 1.4623,1.276 3.2586,2.1785 5.2404,2.5607 0.6883,0.1512 1.4035,0.231 2.1373,0.231 0.7338,0 1.449,-0.0798 2.1373,-0.231 1.9818,-0.3822 3.7781,-1.2847 5.2404,-2.5607z"/>
   </g>
  </g>
 </g>
</svg>
