<?xml version="1.0" encoding="UTF-8"?>
<!DOCTYPE svg PUBLIC "-//W3C//DTD SVG 1.1//EN" "http://www.w3.org/Graphics/SVG/1.1/DTD/svg11.dtd">
<!-- Creator: CorelDRAW -->
<svg xmlns="http://www.w3.org/2000/svg" xml:space="preserve" width="90mm" height="90mm" style="shape-rendering:geometricPrecision; text-rendering:geometricPrecision; image-rendering:optimizeQuality; fill-rule:evenodd; clip-rule:evenodd"
viewBox="0 0 90 90"
 xmlns:xlink="http://www.w3.org/1999/xlink">
 <defs>
  <style type="text/css">
   <![CDATA[
    .fil2 {fill:#FEFEFE}
    .fil0 {fill:#E85C63}
    .fil1 {fill:#373435;fill-opacity:0.101961}
   ]]>
  </style>
 </defs>
 <g id="Layer_x0020_1">
  <metadata id="CorelCorpID_0Corel-Layer"/>
  <g id="_222336136">
   <circle id="_223712504" class="fil0" cx="45" cy="45" r="45"/>
   <path id="_224657568" class="fil1" d="M33.071 65.1651l21.2581 -13.7626 -3.1484 -3.2532 12.3714 -6.5864 1.2487 -3.0815 -1.3249 -1.4727 0.4119 -8.4885 25.2544 25.2545c-3.3438,16.9161 -16.167,30.4231 -32.7048,34.7569l-23.3664 -23.3665z"/>
   <path id="_224152128" class="fil1" d="M33.071 65.1651l21.2654 -13.7553 -3.1557 -3.2605 12.3714 -6.5864 1.2487 -3.0815 4.4492 2.6701 18.3584 18.3585c-4.8305,14.1889 -16.5495,25.1901 -31.171,29.0216l-23.3664 -23.3665z"/>
   <path id="_224657448" class="fil2" d="M45.0488 36.894c3.4288,0 6.2082,2.7796 6.2082,6.2082 0,3.4287 -2.7794,6.2081 -6.2082,6.2081 -3.4286,0 -6.2081,-2.7794 -6.2081,-6.2081 0,-3.4286 2.7795,-6.2082 6.2081,-6.2082zm14.5339 -10.2719c3.2428,0 5.8716,2.6288 5.8716,5.8716 0,3.2428 -2.6288,5.8716 -5.8716,5.8716 -3.2428,0 -5.8716,-2.6288 -5.8716,-5.8716 0,-3.2428 2.6288,-5.8716 5.8716,-5.8716zm-29.0677 0c3.2428,0 5.8716,2.6288 5.8716,5.8716 0,3.2428 -2.6288,5.8716 -5.8716,5.8716 -3.2428,0 -5.8716,-2.6288 -5.8716,-5.8716 0,-3.2428 2.6288,-5.8716 5.8716,-5.8716zm5.0649 11.6809c0.9201,0.2899 1.7852,0.6914 2.576,1.1865 -0.5826,1.0873 -0.9134,2.3299 -0.9134,3.6498 0,1.8418 0.6436,3.5328 1.7177,4.8616 -2.9913,0.8392 -5.4998,2.8636 -6.9818,5.5286l-11.5321 0c-1.6873,0 -2.3234,-0.8643 -2.3234,-3.031l0 -2.7916c0,-4.3474 3.0772,-8.0653 7.3272,-9.4039 1.0039,0.8761 2.2371,1.4957 3.5976,1.758 0.4725,0.1038 0.9636,0.1586 1.4673,0.1586 0.5038,0 0.9947,-0.0548 1.4673,-0.1586 1.3605,-0.2623 2.5937,-0.8819 3.5976,-1.758zm29.0677 0c4.25,1.3386 7.3272,5.0565 7.3272,9.4039 0,1.6603 0,1.1788 0,2.8392 0,0.1518 -0.0048,0.2977 -0.0144,0.438 -2.4171,-1.6848 -5.3555,-2.6736 -8.5251,-2.6736 -2.8427,0 -5.4996,0.7947 -7.7611,2.1739 -1.317,-1.1691 -2.9014,-2.0426 -4.6467,-2.5134 1.0596,-1.3243 1.6936,-3.0038 1.6936,-4.8317 0,-1.2941 -0.3181,-2.5138 -0.8797,-3.5859 0.8179,-0.5245 1.7171,-0.9482 2.6764,-1.2504 1.004,0.8761 2.2371,1.4957 3.5977,1.758 0.4725,0.1038 0.9635,0.1586 1.4672,0.1586 0.5038,0 0.9948,-0.0548 1.4674,-0.1586 1.3605,-0.2623 2.5936,-0.8819 3.5975,-1.758zm-14.2435 10.9416c1.4757,0.4648 2.8176,1.201 3.9545,2.1429 -3.5569,2.7285 -5.8506,7.0211 -5.8506,11.8503 0,0.7149 0.0513,1.4178 0.1485,2.1058l-14.2534 0c-1.7839,0 -2.4565,-0.9138 -2.4565,-3.2047l0 -2.9517c0,-4.5964 3.2535,-8.5273 7.7471,-9.9426 1.0615,0.9262 2.3653,1.5813 3.8038,1.8587 0.4996,0.1098 1.0187,0.1676 1.5513,0.1676 0.5327,0 1.0519,-0.0578 1.5515,-0.1676 1.4384,-0.2774 2.7423,-0.9325 3.8038,-1.8587z"/>
   <polygon id="_223712600" class="fil2" points="52.8745,54.7444 54.0467,54.7444 54.0467,71.0076 70.3098,71.0076 70.3098,72.1797 54.0467,72.1797 52.8745,72.1797 52.8745,71.0076 "/>
   <polygon id="_223712024" class="fil2" points="56.7666,69.6248 55.7507,68.8385 61.4534,61.4256 64.2066,63.4473 68.0208,58.4954 66.1239,57.9506 69.8915,56.8761 69.9421,60.6671 68.9261,59.1788 64.4996,65.1387 61.7156,63.1104 "/>
  </g>
 </g>
</svg>
