<?xml version="1.0" encoding="UTF-8"?>
<!DOCTYPE svg PUBLIC "-//W3C//DTD SVG 1.1//EN" "http://www.w3.org/Graphics/SVG/1.1/DTD/svg11.dtd">
<!-- Creator: CorelDRAW -->
<svg xmlns="http://www.w3.org/2000/svg" xml:space="preserve" width="90mm" height="90mm" style="shape-rendering:geometricPrecision; text-rendering:geometricPrecision; image-rendering:optimizeQuality; fill-rule:evenodd; clip-rule:evenodd"
viewBox="0 0 90 90"
 xmlns:xlink="http://www.w3.org/1999/xlink">
 <defs>
  <style type="text/css">
   <![CDATA[
    .fil1 {fill:#FEFEFE}
    .fil0 {fill:#F2C736}
    .fil2 {fill:#373435;fill-opacity:0.101961}
   ]]>
  </style>
 </defs>
 <g id="Layer_x0020_1">
  <metadata id="CorelCorpID_0Corel-Layer"/>
  <g id="_82353712">
   <circle id="_223737872" class="fil0" cx="45" cy="45" r="45"/>
   <path id="_222259640" class="fil1" d="M65.3091 58.4499c1.981,0 3.5869,1.6059 3.5869,3.5869 0,1.981 -1.6059,3.587 -3.5869,3.587 -1.981,0 -3.5869,-1.606 -3.5869,-3.587 0,-1.981 1.6059,-3.5869 3.5869,-3.5869zm0.4247 5.998l-0.851 0 0 -3.2087c-0.3112,0.2916 -0.6773,0.5067 -1.0992,0.6452l0 -0.7724c0.2213,-0.0724 0.4633,-0.2099 0.7239,-0.4126 0.2606,-0.2037 0.4394,-0.4405 0.5356,-0.7114l0.6907 0 0 4.4599z"/>
   <path id="_224152152" class="fil2" d="M32.912 64.9878l21.2581 -13.7627 -3.1485 -3.2531 12.3715 -6.5865 1.2487 -3.0815 -1.3249 -1.4727 0.4118 -8.4885 25.4164 25.4164c-3.3382,16.9184 -16.1576,30.4292 -32.6933,34.7684l-23.5398 -23.5398z"/>
   <path id="_225045072" class="fil2" d="M32.912 64.9878l21.2654 -13.7554 -3.1558 -3.2604 12.3715 -6.5865 1.2487 -3.0815 4.4491 2.6701 18.5223 18.5223c-4.8261,14.1908 -16.5419,25.1951 -31.1613,29.0312l-23.5399 -23.5398z"/>
   <path id="_225045168" class="fil1" d="M45.0489 36.894c3.4287,0 6.2081,2.7796 6.2081,6.2082 0,3.4287 -2.7794,6.2081 -6.2081,6.2081 -3.4287,0 -6.2082,-2.7794 -6.2082,-6.2081 0,-3.4286 2.7795,-6.2082 6.2082,-6.2082zm14.5338 -10.2719c3.2428,0 5.8716,2.6288 5.8716,5.8716 0,3.2428 -2.6288,5.8716 -5.8716,5.8716 -3.2428,0 -5.8716,-2.6288 -5.8716,-5.8716 0,-3.2428 2.6288,-5.8716 5.8716,-5.8716zm-29.0677 0c3.2428,0 5.8716,2.6288 5.8716,5.8716 0,3.2428 -2.6288,5.8716 -5.8716,5.8716 -3.2428,0 -5.8716,-2.6288 -5.8716,-5.8716 0,-3.2428 2.6288,-5.8716 5.8716,-5.8716zm5.0649 11.6809c0.9201,0.2899 1.7852,0.6914 2.576,1.1865 -0.5826,1.0873 -0.9134,2.3299 -0.9134,3.6498 0,1.8418 0.6436,3.5328 1.7177,4.8616 -2.9913,0.8392 -5.4998,2.8636 -6.9818,5.5286l-11.5321 0c-1.6873,0 -2.3234,-0.8643 -2.3234,-3.031l0 -2.7916c0,-4.3474 3.0772,-8.0653 7.3272,-9.4039 1.0039,0.8761 2.2371,1.4957 3.5976,1.758 0.4725,0.1038 0.9636,0.1586 1.4673,0.1586 0.5038,0 0.9947,-0.0548 1.4673,-0.1586 1.3606,-0.2623 2.5937,-0.8819 3.5976,-1.758zm29.0677 0c4.25,1.3386 7.3272,5.0565 7.3272,9.4039 0,1.6603 0,1.1788 0,2.8392 0,0.1518 -0.0048,0.2977 -0.0144,0.438 -2.4171,-1.6848 -5.3555,-2.6736 -8.5251,-2.6736 -2.8427,0 -5.4996,0.7947 -7.7611,2.1739 -1.317,-1.1691 -2.9014,-2.0426 -4.6467,-2.5134 1.0596,-1.3243 1.6937,-3.0038 1.6937,-4.8317 0,-1.2941 -0.3182,-2.5138 -0.8797,-3.5859 0.8178,-0.5245 1.717,-0.9482 2.6763,-1.2504 1.004,0.8761 2.2372,1.4957 3.5977,1.758 0.4725,0.1038 0.9635,0.1586 1.4672,0.1586 0.5038,0 0.9948,-0.0548 1.4674,-0.1586 1.3605,-0.2623 2.5936,-0.8819 3.5975,-1.758zm-14.2435 10.9416c1.4757,0.4648 2.8176,1.201 3.9546,2.1429 -3.557,2.7285 -5.8507,7.0211 -5.8507,11.8503 0,0.7149 0.0513,1.4178 0.1485,2.1058l-14.2534 0c-1.7839,0 -2.4564,-0.9138 -2.4564,-3.2047l0 -2.9517c0,-4.5964 3.2535,-8.5273 7.747,-9.9426 1.0615,0.9262 2.3654,1.5813 3.8038,1.8587 0.4996,0.1098 1.0187,0.1676 1.5514,0.1676 0.5326,0 1.0518,-0.0578 1.5514,-0.1676 1.4385,-0.2774 2.7423,-0.9325 3.8038,-1.8587z"/>
   <path id="_225044568" class="fil1" d="M54.8255 55.5259l20.9736 0 0 13.0089 -1.3341 0c-0.0643,0.0084 -0.1298,0.0128 -0.1965,0.0128 -0.0666,0 -0.1321,-0.0044 -0.1964,-0.0128l-17.5616 0c-0.0643,0.0084 -0.1298,0.0128 -0.1964,0.0128 -0.0667,0 -0.1322,-0.0044 -0.1965,-0.0128l-1.2921 0 0 -1.344c-0.0042,-0.0455 -0.0064,-0.0915 -0.0064,-0.1381 0,-0.0466 0.0022,-0.0927 0.0064,-0.1382l0 -9.7125c-0.0042,-0.0455 -0.0064,-0.0916 -0.0064,-0.1382 0,-0.0466 0.0022,-0.0926 0.0064,-0.1381l0 -1.3998zm17.9488 11.4824c0.0222,-0.762 0.6147,-1.3809 1.3655,-1.445l0 -7.0101c-0.7653,-0.0653 -1.3662,-0.7072 -1.3662,-1.4894l0.0001 -0.0114 -14.9648 0 0.0001 0.0114c0,0.8256 -0.6693,1.495 -1.4949,1.495l-0.0285 -0.0004 0 6.9997 0.0285 -0.0004c0.8107,0 1.4707,0.6455 1.4942,1.4506l14.966 0z"/>
  </g>
 </g>
</svg>
