<?xml version="1.0" encoding="UTF-8"?>
<!DOCTYPE svg PUBLIC "-//W3C//DTD SVG 1.1//EN" "http://www.w3.org/Graphics/SVG/1.1/DTD/svg11.dtd">
<!-- Creator: CorelDRAW -->
<svg xmlns="http://www.w3.org/2000/svg" xml:space="preserve" width="90mm" height="90mm" style="shape-rendering:geometricPrecision; text-rendering:geometricPrecision; image-rendering:optimizeQuality; fill-rule:evenodd; clip-rule:evenodd"
viewBox="0 0 90 90"
 xmlns:xlink="http://www.w3.org/1999/xlink">
 <defs>
  <style type="text/css">
   <![CDATA[
    .fil2 {fill:#FEFEFE}
    .fil0 {fill:#F09543}
    .fil1 {fill:#373435;fill-opacity:0.101961}
   ]]>
  </style>
 </defs>
 <g id="Layer_x0020_1">
  <metadata id="CorelCorpID_0Corel-Layer"/>
  <g id="_223712432">
   <circle id="_222259616" class="fil0" cx="45" cy="45" r="45"/>
   <path id="_223712384" class="fil1" d="M32.8785 65.0314l21.2581 -13.7627 -3.1484 -3.2531 12.3714 -6.5865 1.2488 -3.0815 -1.325 -1.4727 0.4119 -8.4885 25.4163 25.4164c-3.3381,16.9184 -16.1576,30.4292 -32.6932,34.7684l-23.5399 -23.5398z"/>
   <path id="_223711880" class="fil1" d="M32.8785 65.0314l21.2655 -13.7554 -3.1558 -3.2604 12.3714 -6.5865 1.2488 -3.0815 4.4491 2.6701 18.5223 18.5223c-4.8261,14.1908 -16.5419,25.1951 -31.1613,29.0312l-23.54 -23.5398z"/>
   <path id="_82385496" class="fil2" d="M54.8659 55.0962l2.9568 0 0 -2.0498 1.5533 0 0 2.0498 9.2741 0 0 -2.0498 1.5533 0 0 2.0498 2.9568 0 0 15.8038 -18.2943 0 0 -15.8038zm13.8534 11.5385l3.4046 0 0 3.2297 -3.4046 0 0 -3.2297zm-12.9479 -8.1988l3.4046 0 0 3.2298 -3.4046 0 0 -3.2298zm4.3159 0l3.4047 0 0 3.2298 -3.4047 0 0 -3.2298zm4.316 0l3.4046 0 0 3.2298 -3.4046 0 0 -3.2298zm4.316 0l3.4046 0 0 3.2298 -3.4046 0 0 -3.2298zm0 4.0994l3.4046 0 0 3.2298 -3.4046 0 0 -3.2298zm-4.316 0l3.4046 0 0 3.2298 -3.4046 0 0 -3.2298zm-4.316 0l3.4047 0 0 3.2298 -3.4047 0 0 -3.2298zm-4.3159 0l3.4046 0 0 3.2298 -3.4046 0 0 -3.2298zm0 4.0994l3.4046 0 0 3.2297 -3.4046 0 0 -3.2297zm4.3159 0l3.4047 0 0 3.2297 -3.4047 0 0 -3.2297zm4.316 0l3.4046 0 0 3.2297 -3.4046 0 0 -3.2297zm5.2557 -11.5385l0 -1.4119 -0.4645 0 0 1.4119 0 0.6377 0.4645 0 0 -0.6377zm-10.8274 0l0 -1.4119 -0.4645 0 0 1.4119 0 0.6377 0.4645 0 0 -0.6377z"/>
   <path id="_225045456" class="fil2" d="M45.0489 36.894c3.4287,0 6.2081,2.7796 6.2081,6.2082 0,3.4287 -2.7794,6.2081 -6.2081,6.2081 -3.4286,0 -6.2081,-2.7794 -6.2081,-6.2081 0,-3.4286 2.7795,-6.2082 6.2081,-6.2082zm14.5339 -10.2719c3.2428,0 5.8716,2.6288 5.8716,5.8716 0,3.2428 -2.6288,5.8716 -5.8716,5.8716 -3.2428,0 -5.8716,-2.6288 -5.8716,-5.8716 0,-3.2428 2.6288,-5.8716 5.8716,-5.8716zm-29.0678 0c3.2428,0 5.8716,2.6288 5.8716,5.8716 0,3.2428 -2.6288,5.8716 -5.8716,5.8716 -3.2428,0 -5.8716,-2.6288 -5.8716,-5.8716 0,-3.2428 2.6288,-5.8716 5.8716,-5.8716zm5.065 11.6809c0.9201,0.2899 1.7851,0.6914 2.5759,1.1865 -0.5826,1.0873 -0.9134,2.3299 -0.9134,3.6498 0,1.8418 0.6437,3.5328 1.7178,4.8616 -2.9914,0.8392 -5.4999,2.8636 -6.9819,5.5286l-11.5321 0c-1.6872,0 -2.3233,-0.8643 -2.3233,-3.031l0 -2.7916c0,-4.3474 3.0772,-8.0653 7.3271,-9.4039 1.004,0.8761 2.2372,1.4957 3.5977,1.758 0.4725,0.1038 0.9635,0.1586 1.4672,0.1586 0.5038,0 0.9948,-0.0548 1.4674,-0.1586 1.3605,-0.2623 2.5937,-0.8819 3.5976,-1.758zm29.0677 0c4.2499,1.3386 7.3271,5.0565 7.3271,9.4039 0,1.6603 0,1.1788 0,2.8392 0,0.1518 -0.0047,0.2977 -0.0143,0.438 -2.4171,-1.6848 -5.3555,-2.6736 -8.5252,-2.6736 -2.8426,0 -5.4995,0.7947 -7.7611,2.1739 -1.317,-1.1691 -2.9014,-2.0426 -4.6467,-2.5134 1.0597,-1.3243 1.6937,-3.0038 1.6937,-4.8317 0,-1.2941 -0.3181,-2.5138 -0.8797,-3.5859 0.8179,-0.5245 1.7171,-0.9482 2.6764,-1.2504 1.0039,0.8761 2.2371,1.4957 3.5976,1.758 0.4725,0.1038 0.9636,0.1586 1.4673,0.1586 0.5038,0 0.9947,-0.0548 1.4673,-0.1586 1.3605,-0.2623 2.5936,-0.8819 3.5976,-1.758zm-14.2435 10.9416c1.4757,0.4648 2.8175,1.201 3.9545,2.1429 -3.5569,2.7285 -5.8507,7.0211 -5.8507,11.8503 0,0.7149 0.0514,1.4178 0.1486,2.1058l-14.2534 0c-1.7839,0 -2.4565,-0.9138 -2.4565,-3.2047l0 -2.9517c0,-4.5964 3.2535,-8.5273 7.747,-9.9426 1.0616,0.9262 2.3654,1.5813 3.8038,1.8587 0.4997,0.1098 1.0187,0.1676 1.5514,0.1676 0.5327,0 1.0518,-0.0578 1.5515,-0.1676 1.4384,-0.2774 2.7422,-0.9325 3.8038,-1.8587z"/>
  </g>
 </g>
</svg>
