<?xml version="1.0" encoding="UTF-8"?>
<!DOCTYPE svg PUBLIC "-//W3C//DTD SVG 1.1//EN" "http://www.w3.org/Graphics/SVG/1.1/DTD/svg11.dtd">
<!-- Creator: CorelDRAW -->
<svg xmlns="http://www.w3.org/2000/svg" xml:space="preserve" width="90mm" height="90mm" style="shape-rendering:geometricPrecision; text-rendering:geometricPrecision; image-rendering:optimizeQuality; fill-rule:evenodd; clip-rule:evenodd"
viewBox="0 0 90 90"
 xmlns:xlink="http://www.w3.org/1999/xlink">
 <defs>
  <style type="text/css">
   <![CDATA[
    .fil2 {fill:#FEFEFE}
    .fil0 {fill:#E85C63}
    .fil1 {fill:#373435;fill-opacity:0.101961}
   ]]>
  </style>
 </defs>
 <g id="Layer_x0020_1">
  <metadata id="CorelCorpID_0Corel-Layer"/>
  <g id="_225222232">
   <circle id="_225222304" class="fil0" cx="45" cy="45" r="45"/>
   <path id="_225222040" class="fil1" d="M30.7725 61.27c25.9761,5.866 37.4282,-3.2361 30.832,-30.8321l26.7296 26.7295c-4.1744,14.8974 -15.8242,26.6682 -30.6478,31.0163l-26.9138 -26.9137z"/>
   <path id="_225222208" class="fil1" d="M37.5584 52.0989c12.154,2.7446 17.5123,-1.5141 14.4261,-14.426l31.178 31.178c-3.6531,5.8327 -8.6059,10.7671 -14.4525,14.3996l-31.1516 -31.1516z"/>
   <path id="_225222184" class="fil2" d="M45 23.2021c12.0387,0 21.7979,9.7592 21.7979,21.7979 0,12.0387 -9.7592,21.7979 -21.7979,21.7979 -12.0387,0 -21.7979,-9.7592 -21.7979,-21.7979 0,-12.0387 9.7592,-21.7979 21.7979,-21.7979zm0 5.3488c9.0847,0 16.4491,7.3644 16.4491,16.4491 0,9.0847 -7.3644,16.4491 -16.4491,16.4491 -9.0846,0 -16.449,-7.3644 -16.449,-16.4491 0,-9.0847 7.3644,-16.4491 16.449,-16.4491z"/>
   <circle id="_225222328" class="fil2" cx="45" cy="45" r="10.1563"/>
  </g>
 </g>
</svg>
