<?xml version="1.0" encoding="UTF-8"?>
<!DOCTYPE svg PUBLIC "-//W3C//DTD SVG 1.1//EN" "http://www.w3.org/Graphics/SVG/1.1/DTD/svg11.dtd">
<!-- Creator: CorelDRAW -->
<svg xmlns="http://www.w3.org/2000/svg" xml:space="preserve" width="90mm" height="90mm" style="shape-rendering:geometricPrecision; text-rendering:geometricPrecision; image-rendering:optimizeQuality; fill-rule:evenodd; clip-rule:evenodd"
viewBox="0 0 90 90"
 xmlns:xlink="http://www.w3.org/1999/xlink">
 <defs>
  <style type="text/css">
   <![CDATA[
    .fil2 {fill:#FEFEFE}
    .fil0 {fill:#E85D88}
    .fil1 {fill:#373435;fill-opacity:0.101961}
   ]]>
  </style>
 </defs>
 <g id="Layer_x0020_1">
  <metadata id="CorelCorpID_0Corel-Layer"/>
  <g id="_225251200">
   <circle id="_225223432" class="fil0" cx="45" cy="45" r="45"/>
   <path id="_225221224" class="fil1" d="M23.8364 66.3514l2.0347 -3.3043 1.4209 -42.2489 27.4734 27.4734 11.4898 -14.8879 22.4329 22.4329c-4.6452,18.8241 -21.1358,32.9805 -41.112,34.1084l-23.7397 -23.5736z"/>
   <path id="_225221152" class="fil1" d="M23.8364 66.3514l2.0347 -3.3043 1.4209 -42.2482 0 -0.0007 52.6079 52.6079c-7.7448,9.5036 -19.2927,15.7831 -32.3238,16.5189l-23.7397 -23.5736z"/>
   <polygon id="_225221512" class="fil2" points="63.5691,39.4679 54.2707,48.7664 50.388,52.649 46.5054,48.7664 43.3057,45.5666 34.2273,54.645 30.3446,50.7623 39.423,41.684 43.3057,37.8013 47.1883,41.684 50.388,44.8837 59.6865,35.5853 55.7369,31.6357 67.4923,31.6357 67.4923,43.3911 "/>
   <polygon id="_225251536" class="fil2" points="23.9095,20.7989 27.292,20.7989 27.292,62.85 69.2173,62.85 69.2173,66.1067 23.9095,66.1067 "/>
  </g>
 </g>
</svg>
