<?xml version="1.0" encoding="UTF-8"?>
<!DOCTYPE svg PUBLIC "-//W3C//DTD SVG 1.1//EN" "http://www.w3.org/Graphics/SVG/1.1/DTD/svg11.dtd">
<!-- Creator: CorelDRAW -->
<svg xmlns="http://www.w3.org/2000/svg" xml:space="preserve" width="90mm" height="90mm" style="shape-rendering:geometricPrecision; text-rendering:geometricPrecision; image-rendering:optimizeQuality; fill-rule:evenodd; clip-rule:evenodd"
viewBox="0 0 90 90"
 xmlns:xlink="http://www.w3.org/1999/xlink">
 <defs>
  <style type="text/css">
   <![CDATA[
    .fil2 {fill:#FEFEFE}
    .fil0 {fill:#048485}
    .fil1 {fill:#373435;fill-opacity:0.101961}
   ]]>
  </style>
 </defs>
 <g id="Layer_x0020_1">
  <metadata id="CorelCorpID_0Corel-Layer"/>
  <g id="_225250864">
   <circle id="_225223816" class="fil0" cx="45" cy="45" r="45"/>
   <path id="_225224152" class="fil1" d="M42.6415 72.7299l2.3585 -27.7299 -10.8414 -1.0958 -6.6314 -6.7752 18.4409 -6.7173 16.2426 -3.4085 26.9057 26.9057c-3.277,16.3167 -15.3795,29.4393 -31.1149,34.1811l-15.36 -15.3601z"/>
   <path id="_225222880" class="fil1" d="M42.6415 72.7299l4.6376 -22.9155 15.1938 0 20.0418 20.0418c-5.7332,8.6356 -14.3682,15.1761 -24.5132,18.2338l-15.36 -15.3601z"/>
   <polygon id="_225222736" class="fil2" points="27.5272,26.7625 42.6414,26.7625 42.6414,23.216 47.2791,23.216 47.2791,26.7625 62.1732,26.7625 67.2201,31.9457 62.1732,37.129 47.2791,37.129 47.2791,39.4478 62.4729,39.4478 62.4729,49.8144 47.2791,49.8144 47.2791,72.7299 42.6414,72.7299 42.6414,49.8144 27.8268,49.8144 22.78,44.6311 27.8268,39.4478 42.6414,39.4478 42.6414,37.129 27.5272,37.129 "/>
  </g>
 </g>
</svg>
