<?xml version="1.0" encoding="UTF-8"?>
<!DOCTYPE svg PUBLIC "-//W3C//DTD SVG 1.1//EN" "http://www.w3.org/Graphics/SVG/1.1/DTD/svg11.dtd">
<!-- Creator: CorelDRAW -->
<svg xmlns="http://www.w3.org/2000/svg" xml:space="preserve" width="90mm" height="90mm" style="shape-rendering:geometricPrecision; text-rendering:geometricPrecision; image-rendering:optimizeQuality; fill-rule:evenodd; clip-rule:evenodd"
viewBox="0 0 90 90"
 xmlns:xlink="http://www.w3.org/1999/xlink">
 <defs>
  <style type="text/css">
   <![CDATA[
    .fil2 {fill:#FEFEFE}
    .fil0 {fill:#2DB3AC}
    .fil1 {fill:#373435;fill-opacity:0.101961}
   ]]>
  </style>
 </defs>
 <g id="Layer_x0020_1">
  <metadata id="CorelCorpID_0Corel-Layer"/>
  <g id="_225250624">
   <circle id="_225225712" class="fil0" cx="45" cy="45" r="45"/>
   <path id="_225224416" class="fil1" d="M28.8979 50.4837l32.2049 -14.9718 -2.3273 -2.0344 15.0039 -1.3918 16.1066 16.1066c-1.1662,16.6352 -11.3739,30.7746 -25.7398,37.5397l-35.2483 -35.2483z"/>
   <path id="_225224272" class="fil1" d="M28.8979 50.4837l32.2049 -14.9718 -1.0819 3.9635 -4.0937 6.3978 25.5201 25.5201c-4.4426,6.1244 -10.3909,11.084 -17.3011,14.3387l-35.2483 -35.2483z"/>
   <rect id="_225224944" class="fil2" x="16.2208" y="32.0857" width="57.5586" height="2.05566"/>
   <polygon id="_225251560" class="fil2" points="28.8974,35.5119 61.1028,35.5119 61.1028,50.5868 44.8326,56.1542 28.8974,50.5868 "/>
   <rect id="_225250672" class="fil2" x="69.9776" y="35.745" width="0.786544" height="17.3052"/>
   <rect id="_225250816" class="fil2" x="67.7489" y="55.2788" width="5.24399" height="5.11288"/>
  </g>
 </g>
</svg>
