<?xml version="1.0" encoding="UTF-8"?>
<!DOCTYPE svg PUBLIC "-//W3C//DTD SVG 1.1//EN" "http://www.w3.org/Graphics/SVG/1.1/DTD/svg11.dtd">
<!-- Creator: CorelDRAW -->
<svg xmlns="http://www.w3.org/2000/svg" xml:space="preserve" width="90mm" height="90mm" style="shape-rendering:geometricPrecision; text-rendering:geometricPrecision; image-rendering:optimizeQuality; fill-rule:evenodd; clip-rule:evenodd"
viewBox="0 0 90 90"
 xmlns:xlink="http://www.w3.org/1999/xlink">
 <defs>
  <style type="text/css">
   <![CDATA[
    .fil2 {fill:#FEFEFE}
    .fil0 {fill:#ECC83D}
    .fil1 {fill:#373435;fill-opacity:0.101961}
   ]]>
  </style>
 </defs>
 <g id="Layer_x0020_1">
  <metadata id="CorelCorpID_0Corel-Layer"/>
  <g id="_225223336">
   <circle id="_225226072" class="fil0" cx="45" cy="45" r="45"/>
   <path id="_225226000" class="fil1" d="M24.4517 60.4146l15.7143 -2.9748 2.7439 2.9748 15.7144 -21.6509 -2.5551 -2.6941 6.1286 -5.0742 26.1438 26.1439c-4.5726,16.3599 -18.1584,28.9553 -35.0665,32.0986l-28.8234 -28.8233z"/>
   <path id="_225225808" class="fil1" d="M24.4517 60.4146l15.3131 -3.4742 3.1451 3.4742 11.356 -11.3978 4.3584 2.1973 2.807 3.1451 8.0785 -0.6972 14.2037 14.2859c-6.4965,10.936 -17.4935,18.8831 -30.4384,21.29l-28.8234 -28.8233z"/>
   <path id="_225226264" class="fil2" d="M20.7101 31.2808l19.456 0 0 6.4853 -19.456 0 0 -6.4853zm22.1997 0l19.4561 0 0 6.4853 -19.4561 0 0 -6.4853zm-18.4581 7.483l15.7144 0 0 21.6508 -15.7144 0 0 -21.6508zm18.4581 0l15.7145 0 0 12.4503c-5.9773,-1.4536 -8.4643,4.1964 -6.5574,9.2005l-9.1571 0 0 -21.6508z"/>
   <path id="_225223648" class="fil2" d="M40.8816 25.5166c0.2536,0.3034 0.4722,0.6229 0.6564,0.9521 0.1841,-0.3292 0.4027,-0.6487 0.6563,-0.9521 1.8726,-2.2404 4.9319,-2.7683 6.8331,-1.1791 1.9012,1.5891 1.9244,4.6934 0.0518,6.9339l-0.008 0.0094 -2.0401 0c0.3655,-0.2289 0.7073,-0.5234 1.0059,-0.8806 1.3056,-1.5621 1.2894,-3.7265 -0.0361,-4.8346 -1.3256,-1.1079 -3.4587,-0.7399 -4.7643,0.8223 -1.3057,1.562 -1.2896,3.7264 0.0361,4.8345 0.0239,0.0199 0.0482,0.0394 0.0727,0.0584l-3.6149 0c0.0245,-0.019 0.0488,-0.0385 0.0727,-0.0584 1.3257,-1.1081 1.3418,-3.2725 0.0362,-4.8346 -1.3057,-1.5621 -3.4388,-1.9301 -4.7643,-0.8221 -1.3256,1.108 -1.3419,3.2725 -0.0362,4.8345 0.2986,0.3572 0.6404,0.6517 1.0059,0.8806l-2.04 0 -0.0081 -0.0094c-1.8726,-2.2405 -1.8494,-5.3449 0.0518,-6.9339 1.9012,-1.5892 4.9605,-1.0613 6.8331,1.1791z"/>
   <path id="_225223360" class="fil2" d="M61.8163 68.8613c-4.7037,-2.3953 -7.3431,-5.4307 -8.4498,-8.2454l5.0979 0 0.665 -3.724 2.7175 9.3072 2.2887 -7.2291 0.9698 1.706 5.1781 -0.0276c-1.1142,2.8055 -3.7513,5.8268 -8.4368,8.2129 0,0.0194 -0.0304,0.0194 -0.0304,0zm-8.7057 -8.9791c-1.6973,-5.5805 2.6463,-9.9579 8.7209,-6.083 6.0791,-3.8778 10.4247,0.509 8.7171,6.0955l-5.072 0.0108 -1.4332 -2.5395 -2.2566 6.6738 -2.7099 -9.9751 -1.0944 5.8175 -4.8719 0z"/>
  </g>
 </g>
</svg>
