<?xml version="1.0" encoding="UTF-8"?>
<!DOCTYPE svg PUBLIC "-//W3C//DTD SVG 1.1//EN" "http://www.w3.org/Graphics/SVG/1.1/DTD/svg11.dtd">
<!-- Creator: CorelDRAW -->
<svg xmlns="http://www.w3.org/2000/svg" xml:space="preserve" width="90mm" height="90mm" style="shape-rendering:geometricPrecision; text-rendering:geometricPrecision; image-rendering:optimizeQuality; fill-rule:evenodd; clip-rule:evenodd"
viewBox="0 0 90 90"
 xmlns:xlink="http://www.w3.org/1999/xlink">
 <defs>
  <style type="text/css">
   <![CDATA[
    .fil2 {fill:#FEFEFE}
    .fil0 {fill:#AA529B}
    .fil1 {fill:#373435;fill-opacity:0.101961}
   ]]>
  </style>
 </defs>
 <g id="Layer_x0020_1">
  <metadata id="CorelCorpID_0Corel-Layer"/>
  <g id="_225224728">
   <circle id="_225227368" class="fil0" cx="45" cy="45" r="45"/>
   <path id="_225226912" class="fil1" d="M22.1058 63.7415l4.7772 -1.0113 2.3226 2.433 31.2729 -2.4157 2.3106 2.3985 5.2702 -34.6055 21.4066 21.4067c-3.1781,20.5075 -20.203,36.4365 -41.2192,37.9353l-26.1409 -26.141z"/>
   <path id="_225226648" class="fil1" d="M22.1058 63.7415l4.7772 -1.0113 2.3226 2.433 31.2729 -2.4157 2.3106 2.3985 5.4394 -2.085 11.0684 11.0684c-7.5981,8.9375 -18.6262,14.8668 -31.0502,15.7531l-26.1409 -26.141z"/>
   <path id="_225224392" class="fil2" d="M25.8844 28.7462l0.9986 0 0 36.417 -0.9986 0c-3.1679,0 -5.7599,-2.5919 -5.7599,-5.7598l0 -24.8973c0,-3.1679 2.592,-5.7599 5.7599,-5.7599zm14.2268 21.4346l4.5708 -4.915 -8.5318 -4.8938 0.9033 -1.2481 10.2748 3.2965 3.0314 -3.2597c3.0589,-2.178 4.4024,-0.8097 2.217,2.2499l-3.2581 2.9685 3.3113 10.3212 -1.2481 0.9033 -4.9367 -8.6065 -4.9508 4.5108 1.939 3.3238 -1.2481 0.9033 -2.7243 -3.4421 -3.4421 -2.7243 0.9033 -1.2481 3.1891 1.8603zm-0.524 -29.0147l10.4977 0c1.6606,0 3.0193,1.3587 3.0193,3.0192l0 4.5609 7.3624 0 0 36.417 -31.2611 0 0 -36.417 7.3624 0 0 -4.5609c0,-1.6606 1.3587,-3.0192 3.0193,-3.0192zm0.3161 1.1148l9.8655 0c1.181,0 2.1471,0.9662 2.1471,2.1471l0 4.3182 -14.1597 0 0 -4.3182c0,-1.1809 0.9661,-2.1471 2.1471,-2.1471zm22.8858 6.4653l0.9986 0c3.1679,0 5.7599,2.592 5.7599,5.7599l0 24.8973c0,3.1679 -2.592,5.7598 -5.7599,5.7598l-0.9986 0 0 -36.417z"/>
  </g>
 </g>
</svg>
