<?xml version="1.0" encoding="UTF-8"?>
<!DOCTYPE svg PUBLIC "-//W3C//DTD SVG 1.1//EN" "http://www.w3.org/Graphics/SVG/1.1/DTD/svg11.dtd">
<!-- Creator: CorelDRAW -->
<svg xmlns="http://www.w3.org/2000/svg" xml:space="preserve" width="90mm" height="90mm" style="shape-rendering:geometricPrecision; text-rendering:geometricPrecision; image-rendering:optimizeQuality; fill-rule:evenodd; clip-rule:evenodd"
viewBox="0 0 90 90"
 xmlns:xlink="http://www.w3.org/1999/xlink">
 <defs>
  <style type="text/css">
   <![CDATA[
    .fil2 {fill:#FEFEFE}
    .fil0 {fill:#0083B0}
    .fil1 {fill:#373435;fill-opacity:0.101961}
   ]]>
  </style>
 </defs>
 <g id="Layer_x0020_1">
  <metadata id="CorelCorpID_0Corel-Layer"/>
  <g id="_225227824">
   <circle id="_225225088" class="fil0" cx="45" cy="45" r="45"/>
   <path id="_225221704" class="fil1" d="M20.1772 60.0952l5.4559 -2.3474 0.1886 -15.9258 39.3417 -1.0823 21.4384 21.4383c-6.1643,14.912 -20.1107,25.7873 -36.7776,27.5641l-29.647 -29.6469z"/>
   <path id="_225221632" class="fil1" d="M56.8139 57.8852l1.5839 -1.0627 4.6089 1.9029 4.2799 -2.7859 0.4949 -2.2157 6.0585 -0.0563 11.4301 11.4302c-2.2928,4.5851 -5.3451,8.7234 -8.9924,12.2513l-19.4638 -19.4638z"/>
   <path id="_225221368" class="fil2" d="M39.6997 23.4204l10.1512 0 0 10.1513 -4.1875 0 0 7.168 17.7238 0 1.7762 0 0 1.7762 0 2.1854c-0.0355,-0.0003 -0.0707,-0.0014 -0.1063,-0.0014 -0.5667,0 -1.1239,0.0398 -1.6699,0.115l0 -2.299 -17.7238 0 0 7.428 4.1875 0 0 10.1513 -10.1512 0 0 -10.1513 4.1875 0 0 -7.428 -17.6842 0 0 7.428 4.1254 0 0 10.1513 -10.1512 0 0 -10.1513 4.2495 0 0 -7.428 0 -1.7762 1.7763 0 17.6842 0 0 -7.168 -4.1875 0 0 -10.1513z"/>
   <path id="_225223384" class="fil2" d="M61.8023 47.1297l0.6106 0 0.6107 0 0.1167 1.3025c0.4898,0.064 0.9596,0.1918 1.4008,0.3747l0.7519 -1.0691 0.5288 0.3053 0 0 0.5289 0.3054 -0.5505 1.1868c0.3846,0.2956 0.7293,0.6404 1.025,1.0249l1.1868 -0.5504 0.3053 0.5288 0 0 0.3053 0.5289 -1.0691 0.7518c0.183,0.4412 0.3107,0.911 0.3747,1.4009l1.3025 0.1166 0 0.6107 0 0 0 0.6106 -1.3025 0.1167c-0.064,0.4899 -0.1918,0.9597 -0.3746,1.4009l1.069 0.7518 -0.3053 0.5289 0 0 -0.3053 0.5288 -1.1868 -0.5504c-0.2957,0.3845 -0.6405,0.7292 -1.025,1.0249l0.5505 1.1868 -0.5289 0.3054 0 0 -0.5288 0.3053 -0.7519 -1.0691c-0.4412,0.1829 -0.911,0.3106 -1.4008,0.3747l-0.1167 1.3025 -0.6107 0 0 0 -0.6106 0 -0.1167 -1.3025c-0.4899,-0.064 -0.9596,-0.1918 -1.4008,-0.3747l-0.7519 1.0691 -0.5289 -0.3053 -0.5288 -0.3054 0.5504 -1.1868c-0.3845,-0.2956 -0.7292,-0.6404 -1.0249,-1.0249l-1.1868 0.5504 -0.3053 -0.5288 -0.3053 -0.5289 1.069 -0.7518c-0.1829,-0.4412 -0.3106,-0.911 -0.3747,-1.4009l-1.3024 -0.1167 0 -0.6106 0 -0.6107 1.3024 -0.1166c0.064,-0.4899 0.1919,-0.9597 0.3747,-1.4009l-1.069 -0.7519 0.3053 -0.5288 0.3053 -0.5288 1.1868 0.5504c0.2956,-0.3845 0.6405,-0.7292 1.025,-1.0249l-0.5505 -1.1868 0.5289 -0.3054 0.5288 -0.3053 0.7519 1.0691c0.4411,-0.1829 0.911,-0.3106 1.4008,-0.3747l0.1167 -1.3025zm0.6106 2.7189c2.2638,0 4.099,1.8351 4.099,4.0989 0,2.2638 -1.8352,4.0989 -4.099,4.0989 -2.2637,0 -4.0989,-1.8351 -4.0989,-4.0989 0,-2.2638 1.8352,-4.0989 4.0989,-4.0989z"/>
   <path id="_225250360" class="fil2" d="M68.2121 58.0023l0.3975 0 0.3975 0 0.0759 0.8478c0.3189,0.0417 0.6247,0.1249 0.9119,0.2439l0.4894 -0.6959 0.3442 0.1988 0 0 0.3443 0.1987 -0.3583 0.7726c0.2503,0.1924 0.4747,0.4168 0.6671,0.6671l0.7726 -0.3583 0.1987 0.3443 0 0 0.1988 0.3442 -0.6959 0.4894c0.119,0.2872 0.2022,0.593 0.2439,0.9119l0.8478 0.0759 0 0.3975 0 0 0 0.3975 -0.8478 0.076c-0.0417,0.3189 -0.1249,0.6246 -0.2439,0.9118l0.6959 0.4894 -0.1988 0.3443 0 0 -0.1987 0.3442 -0.7726 -0.3583c-0.1924,0.2504 -0.4169,0.4747 -0.6671,0.6672l0.3583 0.7725 -0.3443 0.1988 0 0 -0.3442 0.1987 -0.4894 -0.6959c-0.2872,0.1191 -0.593,0.2022 -0.9119,0.2439l-0.0759 0.8478 -0.3975 0.0001 0 0 -0.3975 -0.0001 -0.076 -0.8478c-0.3189,-0.0416 -0.6246,-0.1248 -0.9118,-0.2439l-0.4895 0.6959 -0.3442 -0.1987 -0.3442 -0.1988 0.3583 -0.7725c-0.2504,-0.1924 -0.4747,-0.4169 -0.6672,-0.6672l-0.7725 0.3583 -0.1988 -0.3442 -0.1987 -0.3443 0.6959 -0.4894c-0.1191,-0.2871 -0.2022,-0.593 -0.2439,-0.9118l-0.8479 -0.076 0 -0.3975 0 -0.3975 0.8479 -0.0759c0.0416,-0.3189 0.1248,-0.6247 0.2439,-0.9119l-0.6959 -0.4894 0.1987 -0.3442 0.1988 -0.3443 0.7725 0.3583c0.1924,-0.2503 0.4169,-0.4747 0.6672,-0.6671l-0.3583 -0.7726 0.3442 -0.1987 0.3442 -0.1988 0.4895 0.6959c0.2871,-0.119 0.593,-0.2022 0.9118,-0.2439l0.076 -0.8478zm0.3975 1.7698c1.4735,0 2.6681,1.1946 2.6681,2.6681 0,1.4736 -1.1946,2.6682 -2.6681,2.6682 -1.4736,0 -2.6682,-1.1946 -2.6682,-2.6682 0,-1.4735 1.1946,-2.6681 2.6682,-2.6681z"/>
   <path id="_225224488" class="fil2" d="M72.0205 52.4399l0.2834 0.0553 0.2835 0.0552 -0.0637 0.6151c0.2216,0.074 0.4281,0.1758 0.6164,0.3006l0.4456 -0.4282 0.2179 0.1895 0 0 0.2179 0.1896 -0.3629 0.5011c0.1518,0.172 0.2806,0.3632 0.3831,0.5684l0.6006 -0.1482 0.0939 0.2731 0 0 0.0939 0.2731 -0.5642 0.2523c0.045,0.2213 0.0618,0.4509 0.0472,0.6841l0.594 0.1719 -0.0552 0.2835 0 0 -0.0552 0.2834 -0.6151 -0.0636c-0.074,0.2216 -0.1758,0.4281 -0.3006,0.6163l0.4282 0.4457 -0.1895 0.2179 0 0 -0.1896 0.2178 -0.5011 -0.3628c-0.172,0.1518 -0.3632,0.2806 -0.5684,0.383l0.1481 0.6007 -0.273 0.0939 0 0 -0.2731 0.0939 -0.2523 -0.5642c-0.2213,0.045 -0.451,0.0618 -0.6841,0.0472l-0.172 0.594 -0.2834 -0.0552 0 0 -0.2835 -0.0552 0.0637 -0.6152c-0.2216,-0.074 -0.4281,-0.1758 -0.6164,-0.3006l-0.4456 0.4283 -0.2179 -0.1896 -0.2178 -0.1895 0.3628 -0.5011c-0.1518,-0.172 -0.2806,-0.3632 -0.3831,-0.5685l-0.6006 0.1482 -0.0939 -0.2731 -0.0939 -0.2731 0.5642 -0.2523c-0.045,-0.2213 -0.0618,-0.4509 -0.0472,-0.6841l-0.594 -0.1719 0.0552 -0.2835 0.0552 -0.2834 0.6151 0.0636c0.074,-0.2216 0.1759,-0.428 0.3006,-0.6163l-0.4282 -0.4457 0.1896 -0.2178 0.1895 -0.2179 0.5011 0.3628c0.172,-0.1517 0.3632,-0.2805 0.5684,-0.383l-0.1481 -0.6007 0.2731 -0.0939 0.273 -0.0938 0.2523 0.5642c0.2214,-0.045 0.451,-0.0618 0.6841,-0.0472l0.172 -0.5941zm0.0375 1.3173c1.0508,0.2047 1.7367,1.2225 1.5319,2.2732 -0.2047,1.0508 -1.2225,1.7366 -2.2732,1.5319 -1.0508,-0.2047 -1.7366,-1.2225 -1.5319,-2.2733 0.2047,-1.0507 1.2225,-1.7366 2.2732,-1.5318z"/>
  </g>
 </g>
</svg>
