<?xml version="1.0" encoding="UTF-8"?>
<!DOCTYPE svg PUBLIC "-//W3C//DTD SVG 1.1//EN" "http://www.w3.org/Graphics/SVG/1.1/DTD/svg11.dtd">
<!-- Creator: CorelDRAW -->
<svg xmlns="http://www.w3.org/2000/svg" xml:space="preserve" width="90mm" height="90mm" style="shape-rendering:geometricPrecision; text-rendering:geometricPrecision; image-rendering:optimizeQuality; fill-rule:evenodd; clip-rule:evenodd"
viewBox="0 0 90 90"
 xmlns:xlink="http://www.w3.org/1999/xlink">
 <defs>
  <style type="text/css">
   <![CDATA[
    .fil1 {fill:#FEFEFE}
    .fil0 {fill:#F09543}
    .fil2 {fill:#373435;fill-opacity:0.101961}
   ]]>
  </style>
 </defs>
 <g id="Layer_x0020_1">
  <metadata id="CorelCorpID_0Corel-Layer"/>
  <g id="_223712504">
   <g>
    <circle id="_224152128" class="fil0" cx="45" cy="45" r="45"/>
    <path id="_224657448" class="fil1" d="M22.7656 28.4287l7.1872 0 0 -4.9825 3.7757 0 0 4.9825 22.543 0 0 -4.9825 3.7757 0 0 4.9825 7.1872 0 0 38.4151 -44.4688 0 0 -38.4151zm33.674 28.0472l8.2758 0 0 7.8508 -8.2758 0 0 -7.8508zm-31.4729 -19.9291l8.2758 0 0 7.8508 -8.2758 0 0 -7.8508zm10.4909 0l8.2758 0 0 7.8508 -8.2758 0 0 -7.8508zm10.491 0l8.2758 0 0 7.8508 -8.2758 0 0 -7.8508zm10.491 0l8.2758 0 0 7.8508 -8.2758 0 0 -7.8508zm0 9.9646l8.2758 0 0 7.8507 -8.2758 0 0 -7.8507zm-10.491 0l8.2758 0 0 7.8507 -8.2758 0 0 -7.8507zm-10.491 0l8.2758 0 0 7.8507 -8.2758 0 0 -7.8507zm-10.4909 0l8.2758 0 0 7.8507 -8.2758 0 0 -7.8507zm0 9.9645l8.2758 0 0 7.8508 -8.2758 0 0 -7.8508zm10.4909 0l8.2758 0 0 7.8508 -8.2758 0 0 -7.8508zm10.491 0l8.2758 0 0 7.8508 -8.2758 0 0 -7.8508zm12.7752 -28.0472l0 -3.432 -1.1291 0 0 3.432 0 1.5503 1.1291 0 0 -1.5503zm-26.3186 0l0 -3.432 -1.1291 0 0 3.432 0 1.5503 1.1291 0 0 -1.5503z"/>
   </g>
   <path id="_223712600" class="fil2" d="M22.8824 67.0717l43.9651 -0.2279 0.3869 -38.4151 22.3916 22.3915c-2.8211,21.8447 -21.3067,38.7765 -43.8254,39.1697l-22.9182 -22.9182z"/>
   <path id="_223712024" class="fil2" d="M22.8824 67.0717l43.9651 -0.2279 9.9742 9.9741c-7.9681,7.9691 -18.9119,12.9606 -31.0211,13.172l-22.9182 -22.9182z"/>
  </g>
 </g>
</svg>
