<?xml version="1.0" encoding="UTF-8"?>
<!DOCTYPE svg PUBLIC "-//W3C//DTD SVG 1.1//EN" "http://www.w3.org/Graphics/SVG/1.1/DTD/svg11.dtd">
<!-- Creator: CorelDRAW -->
<svg xmlns="http://www.w3.org/2000/svg" xml:space="preserve" width="90mm" height="90mm" style="shape-rendering:geometricPrecision; text-rendering:geometricPrecision; image-rendering:optimizeQuality; fill-rule:evenodd; clip-rule:evenodd"
viewBox="0 0 90 90"
 xmlns:xlink="http://www.w3.org/1999/xlink">
 <defs>
  <style type="text/css">
   <![CDATA[
    .fil2 {fill:#FEFEFE}
    .fil0 {fill:#607D8B}
    .fil1 {fill:#373435;fill-opacity:0.101961}
   ]]>
  </style>
 </defs>
 <g id="Layer_x0020_1">
  <metadata id="CorelCorpID_0Corel-Layer"/>
  <g id="_225222328">
   <circle id="_225223192" class="fil0" cx="45" cy="45" r="45"/>
   <path id="_225222232" class="fil1" d="M25.6394 52.5855l5.836 -2.2957 8.7999 -0.483 8.1202 -11.0801 16.0457 -1.4052 22.9123 22.9123c-4.5163,12.5546 -14.455,22.5209 -26.9913,27.0745l-34.7228 -34.7228z"/>
   <path id="_225222304" class="fil1" d="M25.6394 52.5855l5.836 -2.2957 13.0779 0.4199 8.9421 1.9156 4.2081 3.1442 2.3579 -2.3583 19.9082 19.9082c-5.0978,6.2872 -11.8558,11.1728 -19.6074,13.9889l-34.7228 -34.7228z"/>
   <path id="_225222040" class="fil2" d="M33.951 21.5664l1.5255 0 1.5255 0 0.2914 3.2538c1.2238,0.1598 2.3973,0.4792 3.4996,0.936l1.8783 -2.6707 1.3211 0.7627 0 0 1.3211 0.7628 -1.3751 2.9648c0.9607,0.7386 1.8218,1.5999 2.5605,2.5605l2.9648 -1.3751 0.7628 1.3211 0 0 0.7627 1.3212 -2.6707 1.8782c0.457,1.1022 0.776,2.2759 0.936,3.4996l3.2538 0.2915 0 1.5255 0 0 0 1.5255 -3.2538 0.2914c-0.1598,1.2238 -0.4792,2.3973 -0.936,3.4996l2.6707 1.8783 -0.7627 1.3211 0 0 -0.7628 1.3211 -2.9648 -1.3751c-0.7385,0.9607 -1.5999,1.8218 -2.5605,2.5605l1.3751 2.9648 -1.3211 0.7628 0 0 -1.3211 0.7627 -1.8783 -2.6707c-1.1021,0.457 -2.2758,0.776 -3.4996,0.936l-0.2914 3.2538 -1.5255 0 0 0 -1.5255 0 -0.2915 -3.2538c-1.2238,-0.1598 -2.3973,-0.4792 -3.4996,-0.936l-1.8782 2.6707 -1.3212 -0.7627 -1.3211 -0.7628 1.3751 -2.9648c-0.9607,-0.7385 -1.8218,-1.5999 -2.5605,-2.5605l-2.9648 1.3751 -0.7628 -1.3211 -0.7627 -1.3211 2.6707 -1.8783c-0.457,-1.1021 -0.776,-2.2758 -0.936,-3.4996l-3.2538 -0.2914 0 -1.5255 0 -1.5255 3.2538 -0.2915c0.1598,-1.2238 0.4792,-2.3973 0.936,-3.4996l-2.6707 -1.8782 0.7627 -1.3212 0.7628 -1.3211 2.9648 1.3751c0.7386,-0.9607 1.6,-1.8218 2.5605,-2.5605l-1.3751 -2.9648 1.3211 -0.7628 1.3212 -0.7627 1.8782 2.6707c1.1022,-0.457 2.2759,-0.776 3.4996,-0.936l0.2915 -3.2538zm1.5255 6.7921c5.6552,0 10.2397,4.5845 10.2397,10.2398 0,5.6552 -4.5845,10.2397 -10.2397,10.2397 -5.6553,0 -10.2398,-4.5845 -10.2398,-10.2397 0,-5.6553 4.5845,-10.2398 10.2398,-10.2398z"/>
   <path id="_225222208" class="fil2" d="M49.9636 48.7279l0.993 -0.0001 0.993 0.0001 0.1897 2.118c0.7967,0.104 1.5605,0.3119 2.278,0.6092l1.2227 -1.7384 0.8599 0.4964 0 0.0001 0.86 0.4965 -0.8951 1.9299c0.6254,0.4807 1.1859,1.0414 1.6667,1.6667l1.9299 -0.8951 0.4965 0.8599 0 0 0.4965 0.86 -1.7384 1.2227c0.2974,0.7174 0.5051,1.4814 0.6092,2.2779l2.118 0.1898 0.0001 0.993 0 0 -0.0001 0.993 -2.118 0.1897c-0.104,0.7966 -0.3119,1.5605 -0.6092,2.278l1.7384 1.2226 -0.4965 0.86 0 0 -0.4965 0.8599 -1.9299 -0.895c-0.4807,0.6253 -1.0414,1.1858 -1.6667,1.6666l0.8951 1.93 -0.86 0.4965 0 0 -0.8599 0.4965 -1.2227 -1.7385c-0.7174,0.2975 -1.4814,0.5051 -2.278,0.6093l-0.1897 2.118 -0.993 0 0 0 -0.993 0 -0.1897 -2.118c-0.7966,-0.1041 -1.5605,-0.3119 -2.278,-0.6093l-1.2226 1.7385 -0.86 -0.4965 -0.86 -0.4965 0.8951 -1.93c-0.6253,-0.4807 -1.1858,-1.0414 -1.6667,-1.6666l-1.9299 0.895 -0.4965 -0.8599 -0.4965 -0.86 1.7385 -1.2226c-0.2975,-0.7174 -0.5051,-1.4814 -0.6093,-2.278l-2.118 -0.1897 0 -0.993 0 -0.993 2.118 -0.1898c0.104,-0.7966 0.3119,-1.5605 0.6093,-2.2779l-1.7385 -1.2227 0.4965 -0.86 0.4965 -0.8599 1.9299 0.8951c0.4808,-0.6254 1.0415,-1.1859 1.6667,-1.6667l-0.8951 -1.9299 0.86 -0.4965 0.86 -0.4965 1.2226 1.7384c0.7174,-0.2974 1.4814,-0.5051 2.278,-0.6092l0.1897 -2.118zm0.993 4.4212c3.6812,0 6.6654,2.9842 6.6654,6.6654 0,3.6812 -2.9842,6.6654 -6.6654,6.6654 -3.6812,0 -6.6654,-2.9842 -6.6654,-6.6654 0,-3.6812 2.9842,-6.6654 6.6654,-6.6654z"/>
   <path id="_225222184" class="fil2" d="M59.4777 34.8322l0.7081 0.1379 0.708 0.138 -0.1589 1.5366c0.5535,0.1849 1.0694,0.4392 1.5397,0.751l1.1133 -1.0698 0.5443 0.4735 0 0 0.5442 0.4735 -0.9064 1.2518c0.3791,0.4297 0.7009,0.9074 0.9569,1.4201l1.5005 -0.3702 0.2346 0.6822 0 0 0.2346 0.6822 -1.4095 0.6303c0.1124,0.5529 0.1543,1.1266 0.1179,1.709l1.484 0.4296 -0.138 0.7081 0 0 -0.1379 0.7081 -1.5367 -0.159c-0.1849,0.5536 -0.4392,1.0694 -0.7509,1.5397l1.0697 1.1133 -0.4735 0.5443 0 0 -0.4735 0.5442 -1.2518 -0.9064c-0.4297,0.3792 -0.9074,0.701 -1.42,0.957l0.3701 1.5005 -0.6822 0.2346 0 0 -0.6822 0.2345 -0.6303 -1.4095c-0.5529,0.1124 -1.1265,0.1544 -1.709,0.118l-0.4296 1.4839 -0.708 -0.1379 -0.0001 0 -0.708 -0.138 0.159 -1.5367c-0.5536,-0.1848 -1.0695,-0.4392 -1.5398,-0.7509l-1.1133 1.0698 -0.5443 -0.4736 -0.5442 -0.4735 0.9064 -1.2518c-0.3791,-0.4297 -0.7009,-0.9074 -0.9569,-1.42l-1.5006 0.3701 -0.2345 -0.6822 -0.2346 -0.6822 1.4095 -0.6303c-0.1124,-0.5529 -0.1543,-1.1265 -0.1179,-1.709l-1.484 -0.4295 0.138 -0.7081 0.1379 -0.7081 1.5367 0.159c0.1849,-0.5536 0.4392,-1.0695 0.7509,-1.5398l-1.0697 -1.1133 0.4735 -0.5443 0.4735 -0.5442 1.2518 0.9064c0.4297,-0.3791 0.9074,-0.7009 1.42,-0.9569l-0.3701 -1.5005 0.6822 -0.2346 0.6822 -0.2346 0.6303 1.4095c0.5529,-0.1124 1.1265,-0.1543 1.709,-0.1179l0.4296 -1.4839zm0.0938 3.2906c2.625,0.5114 4.3383,3.054 3.8269,5.6789 -0.5115,2.625 -3.054,4.3383 -5.679,3.8269 -2.625,-0.5114 -4.3383,-3.054 -3.8269,-5.679 0.5115,-2.6249 3.054,-4.3383 5.679,-3.8268z"/>
  </g>
 </g>
</svg>
