<?xml version="1.0" encoding="UTF-8"?>
<!DOCTYPE svg PUBLIC "-//W3C//DTD SVG 1.1//EN" "http://www.w3.org/Graphics/SVG/1.1/DTD/svg11.dtd">
<!-- Creator: CorelDRAW -->
<svg xmlns="http://www.w3.org/2000/svg" xml:space="preserve" width="90mm" height="90mm" style="shape-rendering:geometricPrecision; text-rendering:geometricPrecision; image-rendering:optimizeQuality; fill-rule:evenodd; clip-rule:evenodd"
viewBox="0 0 90 90"
 xmlns:xlink="http://www.w3.org/1999/xlink">
 <defs>
  <style type="text/css">
   <![CDATA[
    .fil2 {fill:#FEFEFE}
    .fil0 {fill:#BA68C8}
    .fil1 {fill:#373435;fill-opacity:0.101961}
   ]]>
  </style>
 </defs>
 <g id="Layer_x0020_1">
  <metadata id="CorelCorpID_0Corel-Layer"/>
  <g id="_225221512">
   <circle id="_225251200" class="fil0" cx="45" cy="45" r="45"/>
   <path id="_225223432" class="fil1" d="M27.4327 68.5978l32.445 -5.0722 2.6896 -31.9072 -1.2783 -1.2126 1.0922 -0.0032 26.1258 26.1258c-4.7892,18.1214 -20.5978,31.7625 -39.823,33.3207l-21.2513 -21.2513z"/>
   <path id="_225221224" class="fil1" d="M27.4327 68.5978l34.6349 -0.4899 11.589 11.5889c-6.8966,5.7026 -15.5222,9.3862 -24.9726,10.1523l-21.2513 -21.2513z"/>
   <path id="_225221152" class="fil2" d="M27.4327 21.4022l24.9408 0 0 9.0896 0 1.0724 1.0725 0 9.1213 0 0 37.0336 -35.1346 0 0 -47.1956zm26.0133 0.0651l9.0245 9.0245 -9.0245 0 0 -9.0245zm-18.4751 35.2004l20.0583 0 0 2.8843 -20.0583 0 0 -2.8843zm0 -10.75l20.0583 0 0 2.8842 -20.0583 0 0 -2.8842zm0 5.3751l20.0583 0 0 2.8842 -20.0583 0 0 -2.8842z"/>
  </g>
 </g>
</svg>
