<?xml version="1.0" encoding="UTF-8"?>
<!DOCTYPE svg PUBLIC "-//W3C//DTD SVG 1.1//EN" "http://www.w3.org/Graphics/SVG/1.1/DTD/svg11.dtd">
<!-- Creator: CorelDRAW -->
<svg xmlns="http://www.w3.org/2000/svg" xml:space="preserve" width="90mm" height="90mm" style="shape-rendering:geometricPrecision; text-rendering:geometricPrecision; image-rendering:optimizeQuality; fill-rule:evenodd; clip-rule:evenodd"
viewBox="0 0 90 90"
 xmlns:xlink="http://www.w3.org/1999/xlink">
 <defs>
  <style type="text/css">
   <![CDATA[
    .fil2 {fill:#FEFEFE}
    .fil0 {fill:#9AC328}
    .fil1 {fill:#373435;fill-opacity:0.101961}
   ]]>
  </style>
 </defs>
 <g id="Layer_x0020_1">
  <metadata id="CorelCorpID_0Corel-Layer"/>
  <g id="_224152152">
   <circle id="_225045072" class="fil0" cx="45.0001" cy="45" r="45"/>
   <path id="_225045168" class="fil1" d="M22.2591 65.001l28.5485 -5.4158 -5.5952 -4.841 12.6219 -5.6402 -4.9006 -4.9136 13.8371 -5.4918 -4.7775 -4.9136 4.7775 -5.4917 22.815 22.815c-2.8842,21.2506 -20.6008,37.7869 -42.382,38.8374l-24.9447 -24.9447z"/>
   <path id="_225044568" class="fil1" d="M22.2591 65.001l28.5495 -5.4917 3.6593 3.2848 12.4547 -11.5878 3.6122 3.6285 13.1544 13.1544c-7.4957,12.5874 -20.9573,21.2074 -36.4854,21.9565l-24.9447 -24.9447z"/>
   <g>
    <path id="_225045144" class="fil2" d="M62.1346 49.9364c5.3289,0 9.6488,4.3199 9.6488,9.6488 0,5.3289 -4.3199,9.6488 -9.6488,9.6488 -5.329,0 -9.6489,-4.3199 -9.6489,-9.6488 0,-5.3289 4.3199,-9.6488 9.6489,-9.6488zm5.4454 4.7778l1.4241 1.4241 -6.7404 6.7402 -1.4241 1.4241 -1.4239 -1.4241 -3.7975 -3.7973 1.4241 -1.4241 3.7973 3.7975 6.7404 -6.7404z"/>
    <path id="_222259400" class="fil2" d="M22.2591 28.2933l44.5117 0 0 5.4917 -44.5117 0 0 -5.4917zm0 31.216l28.5495 0c-0.0002,0.0254 -0.001,0.0505 -0.001,0.0759 0,1.9618 0.4989,3.807 1.3764,5.4158l-29.9249 0 0 -5.4917zm0 -10.4053l35.5752 0c-2.5631,1.0528 -4.6548,3.0181 -5.8706,5.4917l-29.7046 0 0 -5.4917zm0 -10.4054l44.5117 0 0 5.4918 -44.5117 0 0 -5.4918z"/>
   </g>
  </g>
 </g>
</svg>
