<?xml version="1.0" encoding="UTF-8"?>
<!DOCTYPE svg PUBLIC "-//W3C//DTD SVG 1.1//EN" "http://www.w3.org/Graphics/SVG/1.1/DTD/svg11.dtd">
<!-- Creator: CorelDRAW -->
<svg xmlns="http://www.w3.org/2000/svg" xml:space="preserve" width="90mm" height="90mm" style="shape-rendering:geometricPrecision; text-rendering:geometricPrecision; image-rendering:optimizeQuality; fill-rule:evenodd; clip-rule:evenodd"
viewBox="0 0 90 90"
 xmlns:xlink="http://www.w3.org/1999/xlink">
 <defs>
  <style type="text/css">
   <![CDATA[
    .fil2 {fill:#FEFEFE}
    .fil0 {fill:#13B6CF}
    .fil1 {fill:#373435;fill-opacity:0.101961}
   ]]>
  </style>
 </defs>
 <g id="Layer_x0020_1">
  <metadata id="CorelCorpID_0Corel-Layer"/>
  <g id="_223712384">
   <circle id="_223711880" class="fil0" cx="45" cy="45" r="45"/>
   <path id="_82385496" class="fil1" d="M17.911 63.4246l5.5544 -10.1 0.0748 -11.0581 21.4129 0.3968 -0.5878 -12.5999 6.2983 -7.9992 36.9238 36.9237c-5.7417,17.8003 -22.0404,31.0676 -43.033,31.01l-26.6434 -26.5733z"/>
   <path id="_225045456" class="fil1" d="M17.7799 62.9002l5.6855 -9.5756 0.0748 -11.0581 21.4598 0.3299 16.6039 0.0973 4.4899 0.0325 0.7867 15.0763 14.0975 14.2288c-7.6586,10.091 -20.8809,18.0441 -36.4277,17.9665l-26.7704 -27.0976z"/>
   <polygon id="_223712432" class="fil2" points="39.3405,22.1497 50.6594,22.1497 50.6594,33.4686 45.9902,33.4686 45.9902,41.4611 65.7527,41.4611 67.7333,41.4611 67.7333,43.4417 67.7333,51.7241 72.4276,51.7241 72.4276,63.043 61.1087,63.043 61.1087,51.7241 65.7527,51.7241 65.7527,43.4417 45.9902,43.4417 45.9902,51.7241 50.6594,51.7241 50.6594,63.043 39.3405,63.043 39.3405,51.7241 44.0097,51.7241 44.0097,43.4417 24.2913,43.4417 24.2913,51.7241 28.8913,51.7241 28.8913,63.043 17.5724,63.043 17.5724,51.7241 22.3108,51.7241 22.3108,43.4417 22.3108,41.4611 24.2913,41.4611 44.0097,41.4611 44.0097,33.4686 39.3405,33.4686 "/>
  </g>
 </g>
</svg>
