<?xml version="1.0" encoding="UTF-8"?>
<!DOCTYPE svg PUBLIC "-//W3C//DTD SVG 1.1//EN" "http://www.w3.org/Graphics/SVG/1.1/DTD/svg11.dtd">
<!-- Creator: CorelDRAW -->
<svg xmlns="http://www.w3.org/2000/svg" xml:space="preserve" width="90mm" height="90mm" style="shape-rendering:geometricPrecision; text-rendering:geometricPrecision; image-rendering:optimizeQuality; fill-rule:evenodd; clip-rule:evenodd"
viewBox="0 0 90 90"
 xmlns:xlink="http://www.w3.org/1999/xlink">
 <defs>
  <style type="text/css">
   <![CDATA[
    .fil2 {fill:#FEFEFE}
    .fil0 {fill:#FAAF3C}
    .fil1 {fill:#373435;fill-opacity:0.101961}
   ]]>
  </style>
 </defs>
 <g id="Layer_x0020_1">
  <metadata id="CorelCorpID_0Corel-Layer"/>
  <g id="_223739240">
   <circle id="_223711568" class="fil0" cx="45" cy="45" r="45"/>
   <path id="_223711064" class="fil1" d="M35.7228 68.0235l8.7677 -7.9285 10.6431 -30.3131 11.9351 -1.1433 22.5112 22.5112c-2.4862,18.1901 -15.8406,32.9196 -33.3051,37.4258l-20.552 -20.5521z"/>
   <path id="_223711184" class="fil1" d="M35.7228 68.0235l8.7677 -7.9285 2.7771 0.6263 4.2003 0.9543 19.8365 19.8365c-4.4653,3.2227 -9.5446,5.6475 -15.0296,7.0635l-20.552 -20.5521z"/>
   <path id="_223738880" class="fil2" d="M67.046 28.6613l0 2.5705c0,6.6984 -5.1108,12.2601 -11.6254,12.9803 -3.9355,6.2872 -7.935,7.9901 -7.8263,15.1921 4.8558,1.6471 6.019,4.9892 6.6573,8.5939l-9.0616 0 -0.38 0 -9.0616 0c0.6383,-3.6047 1.8015,-6.9468 6.6573,-8.5939 0.1087,-7.202 -3.8908,-8.9049 -7.8263,-15.1921 -6.5146,-0.7201 -11.6255,-6.2819 -11.6255,-12.9803l0 -2.5705 6.9224 0c-0.038,-2.1421 0.0368,-4.3787 0.062,-6.6595l14.8717 0 0.38 0 14.8717 0c0.0252,2.2808 0.1,4.5174 0.062,6.6595l6.9223 0zm-6.9832 1.7552c-0.1167,2.1581 -0.402,4.1997 -1.0361,6.0684 -0.8353,2.4617 -1.7513,4.4709 -2.6897,6.1699 5.1294,-1.1969 8.9373,-5.3115 8.9373,-10.1678l0 -2.0705 -5.2115 0zm-26.3997 12.2383c-0.9385,-1.699 -1.8545,-3.7081 -2.6898,-6.1699 -0.6341,-1.8687 -0.9194,-3.9103 -1.0361,-6.0684l-5.2116 0 0 2.0705c0,4.8564 3.808,8.9708 8.9375,10.1678z"/>
  </g>
 </g>
</svg>
