<?xml version="1.0" encoding="UTF-8"?>
<!DOCTYPE svg PUBLIC "-//W3C//DTD SVG 1.1//EN" "http://www.w3.org/Graphics/SVG/1.1/DTD/svg11.dtd">
<!-- Creator: CorelDRAW -->
<svg xmlns="http://www.w3.org/2000/svg" xml:space="preserve" width="90mm" height="90mm" style="shape-rendering:geometricPrecision; text-rendering:geometricPrecision; image-rendering:optimizeQuality; fill-rule:evenodd; clip-rule:evenodd"
viewBox="0 0 90 90"
 xmlns:xlink="http://www.w3.org/1999/xlink">
 <defs>
  <style type="text/css">
   <![CDATA[
    .fil2 {fill:#FEFEFE}
    .fil0 {fill:#6CAE7E}
    .fil1 {fill:#373435;fill-opacity:0.101961}
   ]]>
  </style>
 </defs>
 <g id="Layer_x0020_1">
  <metadata id="CorelCorpID_0Corel-Layer"/>
  <g id="_82353856">
   <circle id="_223738424" class="fil0" cx="45" cy="45" r="45"/>
   <path id="_223712456" class="fil1" d="M31.2235 63.0392l2.4878 -14.1526 32.0776 -19.5865 23.5307 23.5308c-3.0325,17.2808 -15.9253,31.1641 -32.6631,35.6413l-25.433 -25.433z"/>
   <path id="_224657208" class="fil1" d="M31.2235 63.0392l2.2087 -5.3257 24.3017 0.8467 4.5037 2.3704 15.2279 15.2279c-5.6013,5.8349 -12.761,10.1607 -20.809,12.3137l-25.433 -25.433z"/>
   <path id="_222336952" class="fil2" d="M15.0343 25.2536l11.8698 0 1.0773 4.0465 37.8074 0 -4.2589 22.8216 -28.2687 -0.0555 0.8398 4.0349 26.7232 0 -0.6786 3.6632c1.3674,0.0098 2.473,1.1212 2.473,2.4909 0,1.3758 -1.1154,2.4912 -2.4912,2.4912 -1.3757,0 -2.4911,-1.1154 -2.4911,-2.4912 0,-1.1684 0.8046,-2.1488 1.89,-2.4179l-27.2998 0c1.0853,0.2691 1.8899,1.2495 1.8899,2.4179 0,1.3758 -1.1153,2.4912 -2.4911,2.4912 -1.3758,0 -2.4911,-1.1154 -2.4911,-2.4912 0,-1.3757 1.1153,-2.4911 2.4911,-2.4911l0.0608 0.0008 -7.5247 -31.7107 -8.5465 -0.3533 -0.5806 -2.4473z"/>
  </g>
 </g>
</svg>
