<?xml version="1.0" encoding="UTF-8"?>
<!DOCTYPE svg PUBLIC "-//W3C//DTD SVG 1.1//EN" "http://www.w3.org/Graphics/SVG/1.1/DTD/svg11.dtd">
<!-- Creator: CorelDRAW -->
<svg xmlns="http://www.w3.org/2000/svg" xml:space="preserve" width="90mm" height="90mm" style="shape-rendering:geometricPrecision; text-rendering:geometricPrecision; image-rendering:optimizeQuality; fill-rule:evenodd; clip-rule:evenodd"
viewBox="0 0 90 90"
 xmlns:xlink="http://www.w3.org/1999/xlink">
 <defs>
  <style type="text/css">
   <![CDATA[
    .fil1 {fill:#FEFEFE}
    .fil0 {fill:#007CBC}
    .fil2 {fill:#373435;fill-opacity:0.101961}
   ]]>
  </style>
 </defs>
 <g id="Layer_x0020_1">
  <metadata id="CorelCorpID_0Corel-Layer"/>
  <g id="_222906120">
   <circle id="_224152416" class="fil0" cx="45" cy="45" r="45"/>
   <path id="_223738256" class="fil1" d="M23.6393 23.6392l20.6471 0 0 20.6471 -20.6471 0 0 -20.6471zm9.6284 14.2873l0 -3.2892 -3.2642 0 0 -1.3738 3.2642 0 0 -3.2642 1.3905 0 0 3.2642 3.2641 0 0 1.3738 -3.2641 0 0 3.2892 -1.3905 0z"/>
   <path id="_222336640" class="fil1" d="M45.7137 23.6392l20.6471 0 0 20.6471 -20.6471 0 0 -20.6471zm6.4907 11.0637l0 -1.4799 7.6657 0 0 1.4799 -7.6657 0z"/>
   <path id="_222259664" class="fil1" d="M23.6393 45.7136l20.6471 0 0 20.6471 -20.6471 0 0 -20.6471zm12.6346 13.6179l-2.3258 -2.3257 -2.308 2.3081 -0.9715 -0.9716 2.3081 -2.308 -2.3081 -2.3082 0.9833 -0.9831 2.3082 2.308 2.308 -2.308 0.9714 0.9714 -2.3081 2.308 2.3258 2.3259 -0.9833 0.9832z"/>
   <path id="_224657040" class="fil1" d="M45.7137 45.7136l20.6471 0 0 20.6471 -20.6471 0 0 -20.6471zm14.0365 9.2631l-7.4261 0 0 -1.2909 7.4261 0 0 1.2909zm0 3.412l-7.4261 0 0 -1.2884 7.4261 0 0 1.2884z"/>
   <path id="_222906168" class="fil2" d="M23.9815 66.2998l42.3793 0.0609 0 -42.7024 23.5834 23.5834c-1.1258,22.9472 -19.4403,41.3741 -42.3394,42.6814l-23.6233 -23.6233z"/>
   <path id="_222336880" class="fil2" d="M23.9815 66.2998l42.3793 0.0609 0.0959 -0.0961 10.458 10.458c-7.5796,7.625 -17.8728,12.5474 -29.3099,13.2005l-23.6233 -23.6233z"/>
  </g>
 </g>
</svg>
