<?xml version="1.0" encoding="UTF-8"?>
<!DOCTYPE svg PUBLIC "-//W3C//DTD SVG 1.1//EN" "http://www.w3.org/Graphics/SVG/1.1/DTD/svg11.dtd">
<!-- Creator: CorelDRAW -->
<svg xmlns="http://www.w3.org/2000/svg" xml:space="preserve" width="90mm" height="90mm" style="shape-rendering:geometricPrecision; text-rendering:geometricPrecision; image-rendering:optimizeQuality; fill-rule:evenodd; clip-rule:evenodd"
viewBox="0 0 90 90"
 xmlns:xlink="http://www.w3.org/1999/xlink">
 <defs>
  <style type="text/css">
   <![CDATA[
    .fil2 {fill:#FEFEFE}
    .fil0 {fill:#00B8F5}
    .fil1 {fill:#373435;fill-opacity:0.101961}
   ]]>
  </style>
 </defs>
 <g id="Layer_x0020_1">
  <metadata id="CorelCorpID_0Corel-Layer"/>
  <g id="_295945408">
   <circle id="_295942984" class="fil0" cx="45" cy="45" r="45"/>
   <path id="_295946128" class="fil1" d="M32.8376 63.9401l22.9967 -12.024 -4.8871 -4.9918 12.3715 -6.5865 1.2487 -3.0815 -1.3249 -1.4727 0.4118 -8.4884 25.6469 25.6468c-3.0337,17.0363 -15.654,30.754 -32.0833,35.3784l-24.3803 -24.3803z"/>
   <path id="_295945456" class="fil1" d="M32.8376 63.9401l22.9967 -12.024 -4.8871 -4.9918 12.3715 -6.5865 1.2487 -3.0815 4.4491 2.6702 18.8365 18.8366c-4.587,14.2934 -16.1248,25.4725 -30.635,29.5573l-24.3804 -24.3803z"/>
   <path id="_295945960" class="fil2" d="M45.0001 35.9112c3.4286,0 6.2081,2.7795 6.2081,6.2081 0,3.4287 -2.7795,6.2082 -6.2081,6.2082 -3.4287,0 -6.2082,-2.7795 -6.2082,-6.2082 0,-3.4286 2.7795,-6.2081 6.2082,-6.2081zm14.5338 -10.272c3.2428,0 5.8716,2.6288 5.8716,5.8716 0,3.2428 -2.6288,5.8716 -5.8716,5.8716 -3.2428,0 -5.8716,-2.6288 -5.8716,-5.8716 0,-3.2428 2.6288,-5.8716 5.8716,-5.8716zm-29.0677 0c3.2428,0 5.8716,2.6288 5.8716,5.8716 0,3.2428 -2.6288,5.8716 -5.8716,5.8716 -3.2428,0 -5.8716,-2.6288 -5.8716,-5.8716 0,-3.2428 2.6288,-5.8716 5.8716,-5.8716zm5.0649 11.681c0.9201,0.2898 1.7851,0.6914 2.5759,1.1864 -0.5826,1.0874 -0.9134,2.33 -0.9134,3.6499 0,1.8417 0.6437,3.5328 1.7178,4.8615 -2.9914,0.8392 -5.4998,2.8637 -6.9819,5.5286l-11.532 0c-1.6873,0 -2.3234,-0.8643 -2.3234,-3.031l0 -2.7916c0,-4.3473 3.0772,-8.0652 7.3272,-9.4038 1.0039,0.876 2.2371,1.4956 3.5976,1.758 0.4725,0.1038 0.9635,0.1586 1.4673,0.1586 0.5037,0 0.9947,-0.0548 1.4673,-0.1586 1.3605,-0.2624 2.5936,-0.882 3.5976,-1.758zm29.0677 0c4.25,1.3386 7.3272,5.0565 7.3272,9.4038 0,1.6604 0,1.1789 0,2.8393 0,1.9758 -0.8036,2.9833 -2.6584,2.9833l-11.197 0c-1.5002,-2.6973 -4.0522,-4.7385 -7.092,-5.5585 1.0597,-1.3242 1.6937,-3.0037 1.6937,-4.8316 0,-1.2942 -0.3181,-2.5139 -0.8797,-3.586 0.8179,-0.5244 1.7171,-0.9482 2.6764,-1.2503 1.0039,0.876 2.2371,1.4956 3.5976,1.758 0.4725,0.1038 0.9635,0.1586 1.4673,0.1586 0.5038,0 0.9948,-0.0548 1.4673,-0.1586 1.3605,-0.2624 2.5937,-0.882 3.5976,-1.758zm-14.2436 10.9415c4.4936,1.4153 7.7471,5.3463 7.7471,9.9427 0,1.7556 0,1.2465 0,3.0021 0,2.089 -0.8495,3.1543 -2.8106,3.1543 -8.0609,0 -12.8765,0 -20.9374,0 -1.7839,0 -2.4565,-0.9138 -2.4565,-3.2048l0 -2.9516c0,-4.5964 3.2535,-8.5274 7.7471,-9.9427 1.0614,0.9262 2.3653,1.5813 3.8037,1.8587 0.4997,0.1098 1.0188,0.1677 1.5515,0.1677 0.5326,0 1.0517,-0.0579 1.5514,-0.1677 1.4384,-0.2774 2.7423,-0.9325 3.8037,-1.8587z"/>
  </g>
 </g>
</svg>
