<?xml version="1.0" encoding="UTF-8"?>
<!DOCTYPE svg PUBLIC "-//W3C//DTD SVG 1.1//EN" "http://www.w3.org/Graphics/SVG/1.1/DTD/svg11.dtd">
<!-- Creator: CorelDRAW -->
<svg xmlns="http://www.w3.org/2000/svg" xml:space="preserve" width="60mm" height="60mm" style="shape-rendering:geometricPrecision; text-rendering:geometricPrecision; image-rendering:optimizeQuality; fill-rule:evenodd; clip-rule:evenodd"
viewBox="0 0 60 60"
 xmlns:xlink="http://www.w3.org/1999/xlink">
 <defs>
  <style type="text/css">
   <![CDATA[
    .fil0 {fill:#E6E7E8}
   ]]>
  </style>
 </defs>
 <g id="Layer_x0020_1">
  <metadata id="CorelCorpID_0Corel-Layer"/>
  <path class="fil0" d="M30 2.1382c15.3876,0 27.8618,12.4742 27.8618,27.8618 0,15.3876 -12.4742,27.8618 -27.8618,27.8618 -15.3876,0 -27.8618,-12.4742 -27.8618,-27.8618 0,-15.3876 12.4742,-27.8618 27.8618,-27.8618zm0 31.5769c6.0121,0 11.361,2.8366 14.7834,7.2439l-2.0832 2.0832c-2.8759,-3.8874 -7.4934,-6.4083 -12.7002,-6.4083 -5.2068,0 -9.8243,2.5209 -12.7002,6.4083l-2.0832 -2.0832c3.4224,-4.4073 8.7713,-7.2439 14.7834,-7.2439zm-9.1878 -14.7934c1.5754,0 2.8525,1.2772 2.8525,2.8526 0,1.5753 -1.2771,2.8525 -2.8525,2.8525 -1.5754,0 -2.8525,-1.2772 -2.8525,-2.8525 0,-1.5754 1.2771,-2.8526 2.8525,-2.8526zm18.3756 0c1.5754,0 2.8525,1.2772 2.8525,2.8526 0,1.5753 -1.2771,2.8525 -2.8525,2.8525 -1.5754,0 -2.8525,-1.2772 -2.8525,-2.8525 0,-1.5754 1.2771,-2.8526 2.8525,-2.8526zm-9.1878 -13.8645c13.7755,0 24.9428,11.1673 24.9428,24.9428 0,13.7755 -11.1673,24.9428 -24.9428,24.9428 -13.7755,0 -24.9428,-11.1673 -24.9428,-24.9428 0,-13.7755 11.1673,-24.9428 24.9428,-24.9428z"/>
 </g>
</svg>
