<?xml version="1.0" encoding="UTF-8"?>
<!DOCTYPE svg PUBLIC "-//W3C//DTD SVG 1.1//EN" "http://www.w3.org/Graphics/SVG/1.1/DTD/svg11.dtd">
<!-- Creator: CorelDRAW -->
<svg xmlns="http://www.w3.org/2000/svg" xml:space="preserve" width="60mm" height="60mm" style="shape-rendering:geometricPrecision; text-rendering:geometricPrecision; image-rendering:optimizeQuality; fill-rule:evenodd; clip-rule:evenodd"
viewBox="0 0 60 60"
 xmlns:xlink="http://www.w3.org/1999/xlink">
 <defs>
  <style type="text/css">
   <![CDATA[
    .fil0 {fill:#727376;fill-rule:nonzero}
   ]]>
  </style>
 </defs>
 <g id="Layer_x0020_1">
  <metadata id="CorelCorpID_0Corel-Layer"/>
  <path class="fil0" d="M51.6634 32.763l0 18.5816 -17.185 0 0 -14.6649c0,-7.9549 0.9716,-13.6933 2.8541,-17.2761 2.4896,-4.7364 6.4367,-8.3192 11.8412,-10.7481l3.9167 6.2242c-3.2791,1.3663 -5.6777,3.4006 -7.2262,6.1028 -1.5181,2.6718 -2.3986,6.6189 -2.5808,11.7805l8.38 0zm-27.5688 0l0 18.5816 -17.185 0 0 -14.6649c0,-7.9549 0.9412,-13.6933 2.854,-17.2761 2.4897,-4.7364 6.4368,-8.3192 11.8413,-10.7481l3.8863 6.2242c-3.2487,1.3663 -5.6473,3.4006 -7.1958,6.1028 -1.5485,2.6718 -2.3986,6.6189 -2.5808,11.7805l8.38 0z"/>
 </g>
</svg>
