<?xml version="1.0" encoding="UTF-8"?>
<!DOCTYPE svg PUBLIC "-//W3C//DTD SVG 1.1//EN" "http://www.w3.org/Graphics/SVG/1.1/DTD/svg11.dtd">
<!-- Creator: CorelDRAW -->
<svg xmlns="http://www.w3.org/2000/svg" xml:space="preserve" width="60mm" height="60mm" style="shape-rendering:geometricPrecision; text-rendering:geometricPrecision; image-rendering:optimizeQuality; fill-rule:evenodd; clip-rule:evenodd"
viewBox="0 0 60 60"
 xmlns:xlink="http://www.w3.org/1999/xlink">
 <defs>
  <style type="text/css">
   <![CDATA[
    .fil0 {fill:#727376;fill-rule:nonzero}
   ]]>
  </style>
 </defs>
 <g id="Layer_x0020_1">
  <metadata id="CorelCorpID_0Corel-Layer"/>
  <path class="fil0" d="M35.9054 27.2371l0 -18.5816 17.185 0 0 14.6953c0,7.9245 -0.9413,13.6629 -2.763,17.1546 -2.5504,4.7972 -6.5278,8.4103 -11.9323,10.8392l-3.9167 -6.3153c3.2184,-1.3056 5.5866,-3.3398 7.1654,-6.1635 1.5789,-2.8237 2.4594,-6.6797 2.6112,-11.6287l-8.3496 0zm-27.5688 0l0 -18.5816 17.1546 0 0 14.6953c0,7.9245 -0.9109,13.6629 -2.7326,17.1546 -2.5504,4.7972 -6.5279,8.4103 -11.9323,10.8392l-3.9167 -6.3153c3.188,-1.3056 5.5866,-3.3398 7.1654,-6.1635 1.5789,-2.8237 2.429,-6.6797 2.6112,-11.6287l-8.3496 0z"/>
 </g>
</svg>
