<?xml version="1.0" encoding="UTF-8"?>
<!DOCTYPE svg PUBLIC "-//W3C//DTD SVG 1.1//EN" "http://www.w3.org/Graphics/SVG/1.1/DTD/svg11.dtd">
<!-- Creator: CorelDRAW -->
<svg xmlns="http://www.w3.org/2000/svg" xml:space="preserve" width="60mm" height="60mm" style="shape-rendering:geometricPrecision; text-rendering:geometricPrecision; image-rendering:optimizeQuality; fill-rule:evenodd; clip-rule:evenodd"
viewBox="0 0 60 60"
 xmlns:xlink="http://www.w3.org/1999/xlink">
 <defs>
  <style type="text/css">
   <![CDATA[
    .fil0 {fill:#848688}
   ]]>
  </style>
 </defs>
 <g id="Layer_x0020_1">
  <metadata id="CorelCorpID_0Corel-Layer"/>
  <path class="fil0" d="M30 4.9851c9.7228,0 17.6048,7.882 17.6048,17.6048 0,2.8947 -0.6988,5.6262 -1.9367,8.0351l0.0338 0.0224 -0.2692 0.4186c-0.3893,0.7073 -0.8254,1.3852 -1.3047,2.0289l-14.0961 21.92 -13.8251 -21.4856c-2.3858,-3.0043 -3.8116,-6.8051 -3.8116,-10.9394 0,-9.7228 7.882,-17.6048 17.6048,-17.6048zm0 11.7816c3.216,0 5.8232,2.6072 5.8232,5.8232 0,3.2161 -2.6072,5.8232 -5.8232,5.8232 -3.216,0 -5.8232,-2.6071 -5.8232,-5.8232 0,-3.216 2.6072,-5.8232 5.8232,-5.8232z"/>
 </g>
</svg>
