<?xml version="1.0" encoding="UTF-8"?>
<!DOCTYPE svg PUBLIC "-//W3C//DTD SVG 1.1//EN" "http://www.w3.org/Graphics/SVG/1.1/DTD/svg11.dtd">
<!-- Creator: CorelDRAW -->
<svg xmlns="http://www.w3.org/2000/svg" xml:space="preserve" width="60mm" height="60mm" style="shape-rendering:geometricPrecision; text-rendering:geometricPrecision; image-rendering:optimizeQuality; fill-rule:evenodd; clip-rule:evenodd"
viewBox="0 0 60 60"
 xmlns:xlink="http://www.w3.org/1999/xlink">
 <defs>
  <style type="text/css">
   <![CDATA[
    .fil0 {fill:#2BB0F3}
   ]]>
  </style>
 </defs>
 <g id="Layer_x0020_1">
  <metadata id="CorelCorpID_0Corel-Layer"/>
  <path class="fil0" d="M19.2944 26.0833c2.1631,0 3.9167,1.7536 3.9167,3.9167 0,2.1631 -1.7536,3.9167 -3.9167,3.9167 -2.1631,0 -3.9166,-1.7536 -3.9166,-3.9167 0,-2.1631 1.7535,-3.9167 3.9166,-3.9167zm10.7056 0c2.1631,0 3.9167,1.7536 3.9167,3.9167 0,2.1631 -1.7536,3.9167 -3.9167,3.9167 -2.1631,0 -3.9167,-1.7536 -3.9167,-3.9167 0,-2.1631 1.7536,-3.9167 3.9167,-3.9167zm10.7056 0c2.1631,0 3.9166,1.7536 3.9166,3.9167 0,2.1631 -1.7535,3.9167 -3.9166,3.9167 -2.1632,0 -3.9167,-1.7536 -3.9167,-3.9167 0,-2.1631 1.7535,-3.9167 3.9167,-3.9167zm-10.7056 -18.3567c12.3013,0 22.2734,9.9721 22.2734,22.2734 0,12.3013 -9.9721,22.2734 -22.2734,22.2734 -12.3013,0 -22.2734,-9.9721 -22.2734,-22.2734 0,-12.3013 9.9721,-22.2734 22.2734,-22.2734zm0 2.0403c11.1744,0 20.2331,9.0587 20.2331,20.2331 0,11.1744 -9.0587,20.2331 -20.2331,20.2331 -11.1744,0 -20.2331,-9.0587 -20.2331,-20.2331 0,-11.1744 9.0587,-20.2331 20.2331,-20.2331z"/>
 </g>
</svg>
