<?xml version="1.0" encoding="UTF-8"?>
<!DOCTYPE svg PUBLIC "-//W3C//DTD SVG 1.1//EN" "http://www.w3.org/Graphics/SVG/1.1/DTD/svg11.dtd">
<!-- Creator: CorelDRAW -->
<svg xmlns="http://www.w3.org/2000/svg" xml:space="preserve" width="60mm" height="60mm" style="shape-rendering:geometricPrecision; text-rendering:geometricPrecision; image-rendering:optimizeQuality; fill-rule:evenodd; clip-rule:evenodd"
viewBox="0 0 60 60"
 xmlns:xlink="http://www.w3.org/1999/xlink">
 <defs>
  <style type="text/css">
   <![CDATA[
    .fil0 {fill:#848688}
   ]]>
  </style>
 </defs>
 <g id="Layer_x0020_1">
  <metadata id="CorelCorpID_0Corel-Layer"/>
  <path class="fil0" d="M26.8127 47.7079l-14.5207 -14.5207c-5.0937,-5.0937 -5.4644,-13.1918 -1.1137,-18.7238l6.8234 6.8235c-2.0711,3.0831 -1.7471,7.3267 0.9726,10.0464l9.6923 9.6923c2.7197,2.7197 6.9632,3.0436 10.0463,0.9725l6.8236 6.8235c-5.532,4.3507 -13.6301,3.98 -18.7238,-1.1137zm-14.8122 -34.1995c0.0955,-0.1013 0.1924,-0.2019 0.2915,-0.3009l5.0358 -5.0359 6.7898 6.7898 -5.1434 5.1434c-0.0631,0.0632 -0.1246,0.1274 -0.1851,0.1922l-6.7886 -6.7886zm27.7023 27.7023c0.0648,-0.0605 0.1291,-0.1219 0.1922,-0.1851l5.1434 -5.1434 6.7899 6.7899 -5.0359 5.0358c-0.099,0.0991 -0.1996,0.196 -0.3009,0.2915l-6.7887 -6.7887z"/>
 </g>
</svg>
