<?xml version="1.0" encoding="UTF-8"?>
<!DOCTYPE svg PUBLIC "-//W3C//DTD SVG 1.1//EN" "http://www.w3.org/Graphics/SVG/1.1/DTD/svg11.dtd">
<!-- Creator: CorelDRAW -->
<svg xmlns="http://www.w3.org/2000/svg" xml:space="preserve" width="60mm" height="60mm" style="shape-rendering:geometricPrecision; text-rendering:geometricPrecision; image-rendering:optimizeQuality; fill-rule:evenodd; clip-rule:evenodd"
viewBox="0 0 60 60"
 xmlns:xlink="http://www.w3.org/1999/xlink">
 <defs>
  <style type="text/css">
   <![CDATA[
    .fil0 {fill:#F58634}
   ]]>
  </style>
 </defs>
 <g id="Layer_x0020_1">
  <metadata id="CorelCorpID_0Corel-Layer"/>
  <path class="fil0" d="M30 3.6174c-14.5707,0 -26.3826,11.8118 -26.3826,26.3825 0,14.5707 11.8119,26.3826 26.3826,26.3826 14.5706,0 26.3825,-11.8119 26.3825,-26.3826 0,-14.5707 -11.8119,-26.3825 -26.3825,-26.3825zm0.1416 5.1079l0 0c-0.8245,0 -1.499,0.6748 -1.499,1.499l0 16.9103c-0.7157,0.3397 -1.2838,0.9396 -1.5824,1.6774l-12.7027 0c-0.8244,0 -1.499,0.6746 -1.499,1.499l0 0c0,0.8245 0.6749,1.4991 1.499,1.4991l13.0399 0c0.5728,0.8219 1.5248,1.3599 2.6026,1.3599 1.7507,0 3.17,-1.4192 3.17,-3.17 0,-1.1502 -0.6126,-2.1574 -1.5294,-2.713l0 -17.0627c0,-0.8245 -0.6745,-1.499 -1.499,-1.499z"/>
 </g>
</svg>
