<?xml version="1.0" encoding="UTF-8"?>
<!DOCTYPE svg PUBLIC "-//W3C//DTD SVG 1.1//EN" "http://www.w3.org/Graphics/SVG/1.1/DTD/svg11.dtd">
<!-- Creator: CorelDRAW -->
<svg xmlns="http://www.w3.org/2000/svg" xml:space="preserve" width="60mm" height="60mm" style="shape-rendering:geometricPrecision; text-rendering:geometricPrecision; image-rendering:optimizeQuality; fill-rule:evenodd; clip-rule:evenodd"
viewBox="0 0 60 60"
 xmlns:xlink="http://www.w3.org/1999/xlink">
 <defs>
  <style type="text/css">
   <![CDATA[
    .fil0 {fill:#848688}
   ]]>
  </style>
 </defs>
 <g id="Layer_x0020_1">
  <metadata id="CorelCorpID_0Corel-Layer"/>
  <path class="fil0" d="M30 6.3859c13.0417,0 23.6141,10.5724 23.6141,23.6141 0,13.0417 -10.5724,23.6141 -23.6141,23.6141 -13.0417,0 -23.6141,-10.5724 -23.6141,-23.6141 0,-13.0417 10.5724,-23.6141 23.6141,-23.6141zm-19.5616 31.1772c1.52,2.3302 4.1398,4.1447 7.3246,4.1447 1.722,0 3.2774,-0.1323 4.8948,-0.1323 0.5076,2.1997 0.16,2.4763 0.3856,3.5832 0.1269,0.6227 2.2336,1.3214 3.2203,-1.5988 0.4071,-1.2048 1.818,-3.3069 1.8181,-3.3073 0.6349,0.0501 0.5156,-0.7763 1.1906,0.1323 0.1904,0.2564 1.5477,4.1945 2.4908,1.0696 0.8362,-2.771 -3.5227,-4.4911 -0.2418,-6.384 0.9609,0.5544 -1.8211,1.156 0.9317,2.5968 1.1381,1.314 0.2998,-0.0947 1.9144,2.3434 2.3264,3.5127 -3.1396,4.1408 0.0643,5.7755 2.5661,1.3094 0.1357,-0.908 2.9104,2.3245 0.46,0.5359 0.6404,0.9541 0.6046,1.2981 5.1707,-2.1197 9.3067,-6.2451 11.4399,-11.409 -0.3395,-0.2991 -0.6979,-0.6409 -1.053,-0.8353 -2.6867,-1.4715 1.259,-7.3708 -0.066,-7.087 -1.5542,0.9931 -6.9092,3.8514 -6.9568,3.2959 -0.3082,-0.0487 -0.6395,-0.5232 -0.5291,-0.7937 3.055,-7.4878 -1.1522,-5.8378 -2.7781,-4.8948 -1.6244,0 -9.337,1.1463 -9.2605,-0.7938 0.2159,-5.4779 -1.9843,-3.5137 -1.9843,-6.6146 0.5374,0 1.0119,-0.0538 1.4665,-0.3515 2.0743,-1.3582 2.4545,2.3169 3.8139,1.7954 0.092,-0.0687 0.1828,-0.0586 0.2871,-0.1758 2.7353,-3.0714 7.7265,-2.5447 10.2701,-3.9702 0.7757,-0.4348 -0.1157,-3.751 0.4567,-3.9839 -0.5891,-0.4692 -1.204,-0.9074 -1.8423,-1.3121 -2.0473,-0.2356 -4.537,-0.8346 -5.5545,1.1643 -1.7432,3.4245 -1.7558,0.5235 -3.81,0.8089 -0.3864,0.0537 -0.338,0.1807 -0.4573,0.2646 -0.0536,0.0377 -0.6404,1.1927 -0.7163,1.3115 -1.439,3.7703 -7.5185,-5.0397 -10.6835,2.8613 -1.1092,2.769 -1.309,4.212 -2.3246,6.7015 -1.7824,4.3694 -6.1878,1.6466 -7.8636,-1.0349 -0.5009,1.796 -0.7694,3.6887 -0.7694,5.6444 0,2.6668 0.4989,5.2167 1.4067,7.5631z"/>
 </g>
</svg>
